<?xml version="1.0" encoding="UTF-8" standalone="no"?>
<svg width="121px" height="121px" viewBox="0 0 121 121" version="1.1" xmlns="http://www.w3.org/2000/svg" xmlns:xlink="http://www.w3.org/1999/xlink">
    <!-- Generator: Sketch 40 (33762) - http://www.bohemiancoding.com/sketch -->
    <title>Tick</title>
    <desc>Created with Sketch.</desc>
    <defs>
        <ellipse id="path-1" cx="60.4431399" cy="60.4431399" rx="60.4431399" ry="60.4431399"></ellipse>
        <ellipse id="path-3" cx="62.8015844" cy="61" rx="62.079646" ry="61"></ellipse>
        <ellipse id="path-5" cx="60.4431399" cy="60.4431399" rx="60.4431399" ry="60.4431399"></ellipse>
        <ellipse id="path-7" cx="62.079646" cy="61" rx="62.079646" ry="61"></ellipse>
    </defs>
    <g id="Login" stroke="none" stroke-width="1" fill="none" fill-rule="evenodd">
        <g id="Tick">
            <g id="Group-12-+-Oval-658-+-avatar-Mask">
                <mask id="mask-2" fill="white">
                    <use xlink:href="#path-1"></use>
                </mask>
                <use id="Mask" fill="#D8D8D8" xlink:href="#path-1"></use>
                <g id="Group-12" mask="url(#mask-2)">
                    <g transform="translate(6.180180, 7.180180)" id="Group-19">
                        <g>
                            <circle id="Oval-2" cx="54.3198198" cy="54.4099099" r="53.9594595"></circle>
                        </g>
                    </g>
                </g>
                <circle id="Oval-658" stroke="#D7D7D7" stroke-width="3" mask="url(#mask-2)" cx="60.6999512" cy="61.6999512" r="55.5"></circle>
                <g id="avatar" mask="url(#mask-2)">
                    <g transform="translate(-2.313148, -1.819820)">
                        <mask id="mask-4" fill="white">
                            <use xlink:href="#path-3"></use>
                        </mask>
                        <g id="Mask" stroke="none" fill="none"></g>
                        <g id="avatar" stroke="none" stroke-width="1" fill="none" fill-rule="evenodd" mask="url(#mask-4)">
                            <g transform="translate(23.167660, 33.466630)" id="Capa_1">
                                <g transform="translate(0.000000, -0.000000)">
                                    <g id="Group" transform="translate(0.053755, 0.000000)" stroke="#D8D8D8" stroke-width="2" fill="#7D7D7D">
                                        <path d="M38.6879711,47.3569393 L38.9839984,47.3569393 L39.0950086,47.3569393 L39.2800256,47.3569393 C44.7010249,47.2659383 49.0859288,45.3913169 52.323727,41.8058761 C59.446883,33.9069861 58.262774,20.3660319 58.133262,19.0738172 C57.6707194,9.37310674 53.00829,4.73205389 49.1599356,2.56622922 C46.2921715,0.946410778 42.943363,0.0728008291 39.2060188,-1.8189894e-12 L39.0765069,-1.8189894e-12 L39.0025001,-1.8189894e-12 L38.8914898,-1.8189894e-12 C36.8378007,-1.8189894e-12 32.8044292,0.327603731 28.9375731,2.4934284 C25.0522152,4.65925306 20.315779,9.30030591 19.8532364,19.0738172 C19.7237245,20.3660319 18.5396154,33.9069861 25.6627715,41.8058761 C28.882068,45.3913169 33.2669718,47.2659383 38.6879711,47.3569393 L38.6879711,47.3569393 Z M24.7931914,19.5288224 C24.7931914,19.4742218 24.8116931,19.4196212 24.8116931,19.3832207 C25.4222493,6.33367213 34.8396167,4.93225617 38.8729881,4.93225617 L38.946995,4.93225617 L39.0950086,4.93225617 C44.0904687,5.04145741 52.5827508,7.04348021 53.1563037,19.3832207 C53.1563037,19.4378214 53.1563037,19.492422 53.1748054,19.5288224 C53.1933071,19.6562238 54.4884263,32.0323648 48.6048845,38.548039 C46.2736698,41.1324684 43.1653835,42.4064829 39.0765069,42.4428833 L38.9839984,42.4428833 L38.9839984,42.4428833 L38.8914898,42.4428833 C34.821115,42.4064829 31.694327,41.1324684 29.381614,38.548039 C23.5165738,32.0687652 24.7746897,19.6380236 24.7931914,19.5288224 L24.7931914,19.5288224 Z" id="Shape"></path>
                                        <path d="M76.9864984,69.3063893 C76.8754882,65.7027482 76.6349661,57.2760523 68.6052265,54.5824216 C60.075941,52.4347971 53.1378019,47.7027432 53.0637951,47.6481426 C51.9351912,46.8655337 50.381048,47.1385368 49.5854748,48.2487495 C48.7899015,49.3589621 49.0674271,50.8877795 50.196031,51.6703884 C50.51056,51.8887909 57.8742382,56.9302483 67.0880868,59.2598749 C71.3989838,60.7704921 71.8800281,65.3023437 72.0095401,69.4519909 C72.0095401,69.6157928 72.0095401,69.7613945 72.0280418,69.9069961 C72.0465435,71.5450148 71.7383388,78.6543331 71.4423116,80.1103497 C68.4450355,81.7847688 56.6964535,90.5724347 38.8238074,90.5724347 C21.0251681,90.5724347 9.20257923,81.7665686 6.18680147,80.0921495 C5.89077421,78.6361329 5.95845668,71.5268146 5.99546009,69.8887959 C5.99546009,69.7431942 6.01396179,69.5975926 6.01396179,69.4337907 C6.14347372,65.2841435 6.62451802,60.7522919 10.9354151,59.2416747 C20.1492637,56.9120481 27.5129419,51.8523905 27.8274708,51.6521882 C28.9560748,50.8695793 29.2336003,49.3407619 28.4380271,48.2305493 C27.6424538,47.1203366 26.0883107,46.8473335 24.9597067,47.6299424 C24.8856999,47.684543 17.9845643,52.4165969 9.60329237,54.5096208 C1.38853578,57.2760523 1.14801363,65.7027482 1.03700341,69.2881891 C1.03700341,69.4519909 1.03700341,69.5975926 1.0185017,69.7431942 C1,70.7442056 0.784303897,80.1831506 1.76489421,82.6219783 C1.94991125,83.0951837 2.28294192,83.4955883 2.72698282,83.7685914 C3.28203394,84.1325955 16.5847591,95.4682905 38.8423091,95.4682905 C61.099859,95.4682905 74.4025842,84.1143953 74.9576353,83.7685914 C75.3831745,83.4955883 75.7347069,83.0951837 75.9197239,82.6219783 C76.8448092,80.2013508 77.0235018,70.7624059 77.0050001,69.8159951 C77.0050001,69.6157928 76.9864984,69.4701911 76.9864984,69.3063893 Z" id="Shape"></path>
                                    </g>
                                </g>
                            </g>
                        </g>
                    </g>
                </g>
            </g>
            <g id="Group-12-+-Oval-658-+-avatar-Mask">
                <mask id="mask-6" fill="white">
                    <use xlink:href="#path-5"></use>
                </mask>
                <use id="Mask" fill="#D8D8D8" xlink:href="#path-5"></use>
                <g id="Group-12" mask="url(#mask-6)">
                    <g transform="translate(6.180180, 7.180180)" id="Group-19">
                        <g>
                            <circle id="Oval-2" cx="54.3198198" cy="54.4099099" r="53.9594595"></circle>
                        </g>
                    </g>
                </g>
                <circle id="Oval-658" stroke="#D7D7D7" stroke-width="3" mask="url(#mask-6)" cx="60.6999512" cy="61.6999512" r="55.5"></circle>
                <g id="avatar" mask="url(#mask-6)">
                    <g transform="translate(-1.313148, -1.819820)">
                        <mask id="mask-8" fill="white">
                            <use xlink:href="#path-7"></use>
                        </mask>
                        <g id="Mask" stroke="none" fill="none"></g>
                        <g id="avatar" stroke="none" stroke-width="1" fill="none" fill-rule="evenodd" mask="url(#mask-8)">
                            <g transform="translate(22.167660, 33.466630)" id="Capa_1">
                                <g transform="translate(0.000000, -0.000000)">
                                    <path d="M48.775504,11.5096305 C48.0917267,10.8301232 46.9587237,10.8301232 46.2510937,11.5096305 C45.5693041,12.1680827 45.5693041,13.2591227 46.2510937,13.9175749 L59.048065,26.2386702 L16.8248179,26.2386702 C15.8389064,26.2386702 15.0537552,26.9947418 15.0537552,27.944138 C15.0537552,28.8858778 15.8389064,29.6706609 16.8248179,29.6706609 L59.048065,29.6706609 L46.2510937,41.9630447 C45.5693041,42.6444661 45.5693041,43.7431625 46.2510937,44.3939583 C46.9587237,45.0734656 48.0917267,45.0734656 48.775504,44.3939583 L64.59978,29.1557666 C65.3054223,28.4973144 65.3054223,27.4062744 64.59978,26.7554786 L48.775504,11.5096305 Z" id="Fill-1" stroke="#7D7D7D" stroke-width="0.2" fill="#7D7D7D" transform="translate(40.091383, 27.951794) scale(-1, 1) rotate(-90.000000) translate(-40.091383, -27.951794) "></path>
                                </g>
                            </g>
                        </g>
                    </g>
                </g>
            </g>
            <rect id="Rectangle-2" fill="#FFFFFF" opacity="0.800000012" x="-90" y="-64" width="300" height="250"></rect>
            <polyline id="Path-2" stroke="#389A6E" stroke-width="6" stroke-linecap="round" stroke-linejoin="round" points="40 60.7040605 56.6065334 74.9456549 79.7885813 47"></polyline>
        </g>
    </g>
</svg>