<?xml version="1.0" encoding="UTF-8" standalone="no"?>
<svg width="36px" height="36px" viewBox="0 0 36 36" version="1.1" xmlns="http://www.w3.org/2000/svg" xmlns:xlink="http://www.w3.org/1999/xlink">
    <!-- Generator: Sketch 39.1 (31720) - http://www.bohemiancoding.com/sketch -->
    <title>social</title>
    <desc>Created with Sketch.</desc>
    <defs>
        <polygon id="path-1" points="17.9831755 0 0 0 0 35.897499 35.966351 35.897499 35.966351 0 17.9831755 0"></polygon>
    </defs>
    <g id="Login" stroke="none" stroke-width="1" fill="none" fill-rule="evenodd">
        <g id="508_Registration_08" transform="translate(-814.000000, -527.000000)">
            <g id="social" transform="translate(814.000000, 527.000000)">
                <mask id="mask-2" fill="white">
                    <use xlink:href="#path-1"></use>
                </mask>
                <g id="Clip-2"></g>
                <path d="M35.9707592,17.9507291 C35.9707592,8.05974745 27.8945633,0 17.983102,0 C8.07186122,0 0,8.05974745 0,17.9507291 C0,23.3987536 2.47672653,28.2997393 6.33012245,31.5939226 C6.37662857,31.6406273 6.42342857,31.687332 6.51269388,31.7297108 C9.63110204,34.3414338 13.6242367,35.897499 18.0298286,35.897499 C22.3418939,35.897499 26.3353224,34.3414338 29.4537306,31.8230468 C29.636302,31.7764155 29.7766286,31.6406273 29.8658939,31.5008798 C33.5872653,28.1599185 35.9707592,23.3520489 35.9707592,17.9507291 L35.9707592,17.9507291 Z M1.65247347,17.9507291 C1.65247347,8.97536456 8.99368163,1.64910794 17.9873633,1.64910794 C26.9810449,1.64910794 34.3222531,8.97536456 34.3222531,17.9507291 C34.3222531,22.3473483 32.5805143,26.328391 29.7341633,29.2622811 C29.2752735,27.1085132 27.8988245,23.4454582 23.676098,21.067112 C24.6403837,19.875666 25.1882449,18.3196008 25.1882449,16.6704929 C25.1882449,12.7318289 21.9765306,9.52672912 18.0298286,9.52672912 C14.0832,9.52672912 10.8714857,12.7318289 10.8714857,16.6704929 C10.8714857,18.3196008 11.4660735,19.8289613 12.3839265,21.067112 C8.12292245,23.4454582 6.74625306,27.1085132 6.33416327,29.2622811 C3.44101224,26.3750957 1.65247347,22.3473483 1.65247347,17.9507291 L1.65247347,17.9507291 Z M12.4814939,16.7128717 C12.4814939,13.6898982 14.9585143,11.2182159 17.9873633,11.2182159 C21.0165796,11.2182159 23.4933061,13.6898982 23.4933061,16.7128717 C23.4933061,19.7356253 21.0165796,22.2076008 17.9873633,22.2076008 C14.9585143,22.2076008 12.4814939,19.7356253 12.4814939,16.7128717 L12.4814939,16.7128717 Z M7.79980408,30.6783055 C7.89340408,29.3513646 8.62405714,24.8614094 13.5817714,22.3430224 C14.822449,23.3056375 16.3348898,23.8523829 17.9873633,23.8523829 C19.6401306,23.8523829 21.1990776,23.2590061 22.4397551,22.296391 C27.3506694,24.8147047 28.1281224,29.2113238 28.2685224,30.6316008 C25.4686041,32.8744521 21.8916,34.2480244 18.0384245,34.2480244 C14.1342612,34.2523503 10.599649,32.9254094 7.79980408,30.6783055 L7.79980408,30.6783055 Z" id="Fill-1" fill="#000000" mask="url(#mask-2)"></path>
            </g>
        </g>
    </g>
</svg>