<?xml version="1.0" encoding="UTF-8" standalone="no"?>
<svg width="26px" height="26px" viewBox="0 0 26 26" version="1.1" xmlns="http://www.w3.org/2000/svg" xmlns:xlink="http://www.w3.org/1999/xlink">
    <!-- Generator: Sketch 39.1 (31720) - http://www.bohemiancoding.com/sketch -->
    <title>social</title>
    <desc>Created with Sketch.</desc>
    <defs>
        <polygon id="path-1" points="12.987849 0 0 0 0 25.9259715 25.975698 25.9259715 25.975698 0 12.987849 0"></polygon>
    </defs>
    <g id="Login" stroke="none" stroke-width="1" fill="none" fill-rule="evenodd">
        <g id="508_Registration_08" transform="translate(-438.000000, -533.000000)">
            <g id="social" transform="translate(438.000000, 533.000000)">
                <mask id="mask-2" fill="white">
                    <use xlink:href="#path-1"></use>
                </mask>
                <g id="Clip-2"></g>
                <path d="M25.9788816,12.9644155 C25.9788816,5.82092872 20.1460735,0 12.9877959,0 C5.82967755,0 0,5.82092872 0,12.9644155 C0,16.8990998 1.78874694,20.4387006 4.5717551,22.817833 C4.60534286,22.8515642 4.63914286,22.8852953 4.70361224,22.9159022 C6.95579592,24.8021466 9.83972653,25.9259715 13.0215429,25.9259715 C16.1358122,25.9259715 19.0199551,24.8021466 21.2721388,22.9833116 C21.4039959,22.9496334 21.5053429,22.8515642 21.5698122,22.7506354 C24.2574694,20.3377189 25.9788816,16.8653686 25.9788816,12.9644155 L25.9788816,12.9644155 Z M1.19345306,12.9644155 C1.19345306,6.48220774 6.49543673,1.1910224 12.9908735,1.1910224 C19.4863102,1.1910224 24.7882939,6.48220774 24.7882939,12.9644155 C24.7882939,16.1397515 23.5303714,19.0149491 21.4746735,21.1338697 C21.1432531,19.5783707 20.149151,16.932831 17.0994041,15.2151365 C17.7958327,14.3546477 18.1915102,13.2308228 18.1915102,12.0398004 C18.1915102,9.19520978 15.8719388,6.88041548 13.0215429,6.88041548 C10.1712,6.88041548 7.85162857,9.19520978 7.85162857,12.0398004 C7.85162857,13.2308228 8.28105306,14.3209165 8.94394694,15.2151365 C5.8665551,16.932831 4.87229388,19.5783707 4.57467347,21.1338697 C2.48517551,19.0486802 1.19345306,16.1397515 1.19345306,12.9644155 L1.19345306,12.9644155 Z M9.01441224,12.0704073 C9.01441224,9.88714868 10.8033714,8.10204481 12.9908735,8.10204481 C15.1786408,8.10204481 16.9673878,9.88714868 16.9673878,12.0704073 C16.9673878,14.2535071 15.1786408,16.0388228 12.9908735,16.0388228 C10.8033714,16.0388228 9.01441224,14.2535071 9.01441224,12.0704073 L9.01441224,12.0704073 Z M5.63319184,22.156554 C5.70079184,21.1982077 6.22848571,17.9554623 9.80905714,16.1366273 C10.705102,16.8318493 11.7974204,17.226721 12.9908735,17.226721 C14.1845388,17.226721 15.3104449,16.7981711 16.2064898,16.1029491 C19.7532612,17.9217312 20.3147551,21.0970672 20.4161551,22.1228228 C18.3939918,23.7426599 15.8106,24.7346843 13.027751,24.7346843 C10.2080776,24.7378086 7.65530204,23.7794623 5.63319184,22.156554 L5.63319184,22.156554 Z" id="Fill-1" fill="#000000" mask="url(#mask-2)"></path>
            </g>
        </g>
    </g>
</svg>