<?xml version="1.0" encoding="UTF-8" standalone="no"?>
<svg width="14px" height="15px" viewBox="0 0 14 15" version="1.1" xmlns="http://www.w3.org/2000/svg" xmlns:xlink="http://www.w3.org/1999/xlink">
    <!-- Generator: Sketch 40.1 (33804) - http://www.bohemiancoding.com/sketch -->
    <title>Page 1 Copy</title>
    <desc>Created with Sketch.</desc>
    <defs></defs>
    <g id="Page-1" stroke="none" stroke-width="1" fill="none" fill-rule="evenodd">
        <g id="414_StyleGuide-Copy-20" transform="translate(-1036.000000, -213.000000)" fill="#000000">
            <path d="M1040.46667,219.7 L1038.97778,219.7 L1038.97778,221.188889 L1040.46667,221.188889 L1040.46667,219.7 L1040.46667,219.7 Z M1043.44444,219.7 L1041.95556,219.7 L1041.95556,221.188889 L1043.44444,221.188889 L1043.44444,219.7 L1043.44444,219.7 Z M1046.42222,219.7 L1044.93333,219.7 L1044.93333,221.188889 L1046.42222,221.188889 L1046.42222,219.7 L1046.42222,219.7 Z M1047.91111,214.488889 L1047.16667,214.488889 L1047.16667,213 L1045.67778,213 L1045.67778,214.488889 L1039.72222,214.488889 L1039.72222,213 L1038.23333,213 L1038.23333,214.488889 L1037.48889,214.488889 C1036.66256,214.488889 1036.00744,215.158889 1036.00744,215.977778 L1036,226.4 C1036,227.218889 1036.66256,227.888888 1037.48889,227.888888 L1047.91111,227.888888 C1048.73,227.888888 1049.4,227.218889 1049.4,226.4 L1049.4,215.977778 C1049.4,215.158889 1048.73,214.488889 1047.91111,214.488889 L1047.91111,214.488889 Z M1047.91111,226.4 L1037.48889,226.4 L1037.48889,218.211111 L1047.91111,218.211111 L1047.91111,226.4 L1047.91111,226.4 Z" id="Page-1-Copy"></path>
        </g>
    </g>
</svg>