<?xml version="1.0" encoding="UTF-8" standalone="no"?>
<svg width="16px" height="22px" viewBox="0 0 16 22" version="1.1" xmlns="http://www.w3.org/2000/svg" xmlns:xlink="http://www.w3.org/1999/xlink">
    <!-- Generator: Sketch 39.1 (31720) - http://www.bohemiancoding.com/sketch -->
    <title>Microphone</title>
    <desc>Created with Sketch.</desc>
    <defs></defs>
    <g id="Page-1" stroke="none" stroke-width="1" fill="none" fill-rule="evenodd" stroke-linecap="square">
        <g id="0403_Webchat" transform="translate(-1052.000000, -629.000000)" stroke="#FFFFFF" stroke-width="1.5">
            <g id="Group-28" transform="translate(905.000000, 630.000000)">
                <g id="Microphone" transform="translate(148.576355, 0.500000)">
                    <path d="M1.05775822e-19,8.04878049 C0.010979299,10.0100708 -8.44852643e-15,16.5853659 6.34146341,16.5853659 C12.6829268,16.5853659 12.6829269,10.1533627 12.6829268,8.04878049" id="Path"></path>
                    <path d="M6.34146341,19.2682927 L6.34146341,16.7902439 L6.34146341,19.2682927 Z M2.43902439,19.5093774 L10.2439024,19.5093774 L2.43902439,19.5093774 Z M2.92724603,3.41463415 C2.92724603,2.43902439 3.90243902,4.50587019e-14 6.34146341,6.66387677e-18 C8.7804878,4.50587019e-14 9.75609756,2.43902439 9.71453405,3.41463415 C9.71453405,4.41312092 9.71453397,9.36237687 9.71453405,10.5704908 C9.71453412,11.7786047 8.7804878,13.6585366 6.34146341,13.6585366 C3.90243902,13.6585366 2.92724603,11.5171405 2.92724603,10.5704908 C2.92724603,9.62384108 2.92724603,4.87804878 2.92724603,3.41463415 Z" id="Path"></path>
                </g>
            </g>
        </g>
    </g>
</svg>