<?xml version="1.0" encoding="UTF-8" standalone="no"?>
<svg width="22px" height="21px" viewBox="0 0 22 21" version="1.1" xmlns="http://www.w3.org/2000/svg" xmlns:xlink="http://www.w3.org/1999/xlink">
    <!-- Generator: Sketch 39.1 (31720) - http://www.bohemiancoding.com/sketch -->
    <title>Photos</title>
    <desc>Created with Sketch.</desc>
    <defs></defs>
    <g id="Page-1" stroke="none" stroke-width="1" fill="none" fill-rule="evenodd">
        <g id="0403_Webchat" transform="translate(-1194.000000, -630.000000)" stroke="#FFFFFF">
            <g id="Group-28" transform="translate(905.000000, 630.000000)">
                <g id="Photos" transform="translate(290.000000, 0.500000)">
                    <path d="M9.35610797,0.481276728 L18.5789928,2.10257486 C18.5789928,2.10257486 19.6200155,2.22812665 19.8781761,2.72570327 C20.1363366,3.2232799 20.0249348,3.60169968 20.0249348,3.60169968 L18.0986869,16.5181852 C18.0986869,16.5181852 17.8828504,18.0166364 17.3899379,18.2636563 C16.8970255,18.5106761 15.4223689,18.2186047 15.4223689,18.2186047 L6.29847938,16.6633817 C6.29847938,16.6633817 5.3676881,16.5064475 5.16310919,16.132027 C4.95853028,15.7576066 5.16310919,14.5549086 5.16310919,14.5549086 L7.11876282,1.85921809 C7.11876282,1.85921809 7.22179598,1.17818196 7.67915275,0.760236469 C8.13650952,0.342290978 9.35610797,0.481276728 9.35610797,0.481276728 Z" id="Path" stroke-width="1.5"></path>
                    <polygon id="Path" points="7.53628978 12.6418107 16.0334588 14.2437282 14.9884913 8.36207154 12.3853537 11.7034228 10.4599503 9.68128742"></polygon>
                    <path d="M5.63521158,2.86322583 L2.06533873,3.20684229 C2.06533873,3.20684229 1.35262153,3.23519667 0.795110425,3.69449083 C0.23759932,4.15378498 0.461233059,5.21609409 0.461233059,5.21609409 L2.39863319,17.9868375 C2.39863319,17.9868375 2.52258217,19.1352594 3.01700322,19.4272099 C3.51142427,19.7191605 4.63451479,19.5020289 4.63451479,19.5020289 L9.3489847,18.660314" id="Path" stroke-width="1.5"></path>
                    <path d="M11.6666667,5.47619048 C11.6666667,4.75014542 11.2359447,4.28571429 10.4761905,4.28571429 C9.7164363,4.28571429 9.28571429,4.99547413 9.28571429,5.47619048 C9.28571429,5.95690682 9.76247753,6.66666667 10.4761905,6.66666667 C11.1899034,6.66666667 11.6666667,6.20223553 11.6666667,5.47619048 Z" id="Path"></path>
                </g>
            </g>
        </g>
    </g>
</svg>