<?xml version="1.0" encoding="UTF-8" standalone="no"?>
<svg width="20px" height="19px" viewBox="0 0 20 19" version="1.1" xmlns="http://www.w3.org/2000/svg" xmlns:xlink="http://www.w3.org/1999/xlink">
    <!-- Generator: Sketch 39.1 (31720) - http://www.bohemiancoding.com/sketch -->
    <title>Attachment</title>
    <desc>Created with Sketch.</desc>
    <defs></defs>
    <g id="Page-1" stroke="none" stroke-width="1" fill="none" fill-rule="evenodd">
        <g id="0403_Webchat" transform="translate(-979.000000, -631.000000)" fill="#FFFFFF">
            <g id="Group-28" transform="translate(905.000000, 630.000000)">
                <g id="Attachment" transform="translate(74.328818, 1.344470)">
                    <path d="M16.2954529,9.41592514 L12.1425932,13.4800143 L9.47842868,16.1113268 C7.82568907,17.7434465 5.14649647,17.7434465 3.49410635,16.1113268 C1.84136674,14.4788576 1.84136674,11.8321676 3.49410635,10.2000479 L6.15792138,7.5680365 L8.48098338,5.2739822 L10.2448609,3.53177307 L10.475874,3.3039054 L11.4733193,2.31834277 L12.4707646,1.33243064 C13.6038121,0.214061697 15.390057,0.214061697 16.491301,1.30202499 C17.5932439,2.39068726 17.5935933,4.15456478 16.491301,5.24322705 C16.4808162,5.25301278 15.4631005,6.25884585 15.4631005,6.25884585 L14.4653057,7.24405899 L14.2346421,7.47297514 L12.4707646,9.21448528 L11.3737146,10.2986042 C11.3737146,10.2986042 10.2967997,11.3607565 10.2965855,11.3624526 C9.08449207,12.3836471 8.48098313,13.015063 7.50595243,12.0679392 C6.53092173,11.1208154 7.1902445,10.4893996 8.30204435,9.39202635 L9.37917344,8.32747891 L11.4733193,6.25884585 L12.5018692,5.24322705 L13.4682099,4.28946803 L12.4707646,3.3039054 L11.7812202,3.98506199 L10.6499202,5.10203297 L9.47842868,6.25884585 L7.97422245,7.74487859 L6.55882881,9.21448539 C5.49218443,10.30839 5.46772011,11.9365359 6.55882881,13.015063 C7.64958802,14.0921921 9.1921962,14.0719216 10.2965855,13.015063 L15.4631005,8.22962163 L16.4601963,7.24405899 L17.4579911,6.25884585 C19.1103812,4.62672617 19.1103812,1.98003616 17.4576416,0.348265971 C15.804902,-1.2842032 13.1257094,-1.2842032 11.4733193,0.348265971 L10.475874,1.33278013 L9.47842868,2.31834277 L2.49631156,9.21448528 C0.32597682,11.3953047 0.335063568,14.8996439 2.52776568,17.0657848 C4.72081729,19.2312266 8.26849328,19.2406629 10.474476,17.094443 L17.2928982,10.4011383 L16.2954529,9.41592514 Z" id="Path" transform="translate(9.786552, 8.910466) scale(1, -1) rotate(-90.000000) translate(-9.786552, -8.910466) "></path>
                </g>
            </g>
        </g>
    </g>
</svg>