<?xml version="1.0" encoding="UTF-8" standalone="no"?>
<svg width="22px" height="21px" viewBox="0 0 22 21" version="1.1" xmlns="http://www.w3.org/2000/svg" xmlns:xlink="http://www.w3.org/1999/xlink">
    <!-- Generator: Sketch 39.1 (31720) - http://www.bohemiancoding.com/sketch -->
    <title>Stickers</title>
    <desc>Created with Sketch.</desc>
    <defs></defs>
    <g id="Page-1" stroke="none" stroke-width="1" fill="none" fill-rule="evenodd">
        <g id="0403_Webchat" transform="translate(-904.000000, -630.000000)" stroke="#FFFFFF">
            <g id="Group-28" transform="translate(905.000000, 630.000000)">
                <g id="Stickers" transform="translate(0.000000, 0.500000)">
                    <path d="M10,20 C15.5228475,20 20,15.5228475 20,10 C20,4.4771525 15.5228475,0 10,0 C4.4771525,0 0,4.4771525 0,10 C0,15.5228475 4.4771525,20 10,20 Z M10,19.0909091 C15.0207705,19.0909091 19.0909091,15.0207705 19.0909091,10 C19.0909091,4.97922955 15.0207705,0.909090909 10,0.909090909 C4.97922955,0.909090909 0.909090909,4.97922955 0.909090909,10 C0.909090909,15.0207705 4.97922955,19.0909091 10,19.0909091 Z" id="Path" stroke-width="0.5" fill="#FFFFFF"></path>
                    <path d="M5.6443483,12.2523432 C5.6443483,12.2523432 6.96321221,14.8927905 10.0332633,14.8878257 C13.1033143,14.8828609 14.2760869,12.2723311 14.2760869,12.2723311" id="Path" stroke-width="1.5"></path>
                    <ellipse id="Path" fill="#FFFFFF" cx="12.6362535" cy="7.70196692" rx="0.909090909" ry="0.909090909"></ellipse>
                    <circle id="Path" fill="#FFFFFF" cx="7.18170807" cy="7.70196692" r="0.909090909"></circle>
                </g>
            </g>
        </g>
    </g>
</svg>