<?xml version="1.0" encoding="UTF-8" standalone="no"?>
<svg width="23px" height="21px" viewBox="0 0 23 21" version="1.1" xmlns="http://www.w3.org/2000/svg" xmlns:xlink="http://www.w3.org/1999/xlink">
    <!-- Generator: Sketch 39.1 (31720) - http://www.bohemiancoding.com/sketch -->
    <title>Page 1</title>
    <desc>Created with Sketch.</desc>
    <defs></defs>
    <g id="Page-1" stroke="none" stroke-width="1" fill="none" fill-rule="evenodd">
        <g id="0403_Webchat" transform="translate(-1118.000000, -630.000000)" fill="#FFFFFF">
            <g id="Group-28" transform="translate(905.000000, 630.000000)">
                <path d="M234.431034,9.07142857 L230.14532,11.9285714 C230.14532,11.0614192 229.751034,10.2942857 229.141025,9.76999066 C230.593163,8.89499533 231.573892,7.31856209 231.573892,5.5 C231.573892,2.73854342 229.335311,0.5 226.573892,0.5 C223.812472,0.5 221.573892,2.73858077 221.573892,5.5 C221.573892,6.90070962 222.153163,8.16356676 223.081753,9.07142857 L220.461735,9.07142857 C221.14603,8.31213819 221.573892,7.31714286 221.573892,6.21428571 C221.573892,3.84715219 219.655311,1.92857143 217.288177,1.92857143 C214.921043,1.92857143 213.002463,3.84715219 213.002463,6.21428571 C213.002463,7.50571429 213.58603,8.64999066 214.489597,9.43572362 C213.607468,9.92214753 213.002463,10.8499907 213.002463,11.9285714 L213.002463,17.6428571 C213.002463,19.22071 214.281753,20.5 215.859606,20.5 L227.288177,20.5 C228.86603,20.5 230.14532,19.22071 230.14532,17.6428571 L234.431034,20.5 C235.220316,20.5 235.859606,19.8607096 235.859606,19.0714286 L235.859606,10.5 C235.859606,9.71071895 235.220316,9.07142857 234.431034,9.07142857 L234.431034,9.07142857 Z M217.288177,9.07142857 C215.710325,9.07142857 214.431034,7.79213819 214.431034,6.21428571 C214.431034,4.63643324 215.710325,3.35714286 217.288177,3.35714286 C218.86603,3.35714286 220.14532,4.63643324 220.14532,6.21428571 C220.14532,7.79213819 218.86603,9.07142857 217.288177,9.07142857 L217.288177,9.07142857 Z M226.573892,9.07927171 C224.596749,9.07927171 222.99462,7.47639589 222.99462,5.5 C222.99462,3.52285714 224.597496,1.92072829 226.573892,1.92072829 C228.550288,1.92072829 230.153163,3.52285714 230.153163,5.5 C230.153163,7.47714286 228.550997,9.07927171 226.573892,9.07927171 L226.573892,9.07927171 Z" id="Page-1"></path>
            </g>
        </g>
    </g>
</svg>