<?xml version="1.0" encoding="UTF-8" standalone="no"?>
<svg width="115px" height="115px" viewBox="0 0 115 115" version="1.1" xmlns="http://www.w3.org/2000/svg" xmlns:xlink="http://www.w3.org/1999/xlink">
    <!-- Generator: Sketch 39.1 (31720) - http://www.bohemiancoding.com/sketch -->
    <title>Group 3</title>
    <desc>Created with Sketch.</desc>
    <defs></defs>
    <g id="Login" stroke="none" stroke-width="1" fill="none" fill-rule="evenodd">
        <g id="506_Registration_06" transform="translate(-584.000000, -171.000000)" stroke="#D7D7D7">
            <g id="Group-15" transform="translate(390.000000, 68.000000)">
                <g id="Group-12">
                    <g id="Group" transform="translate(196.000000, 105.000000)">
                        <g id="Group-3">
                            <circle id="Oval-658" stroke-width="3" cx="55.5" cy="55.5" r="55.5"></circle>
                            <path d="M65.5813882,39.3454644 C64.8976109,38.665957 63.7646078,38.665957 63.0569779,39.3454644 C62.3751883,40.0039166 62.3751883,41.0949565 63.0569779,41.7534087 L75.8539492,54.0745041 L33.630702,54.0745041 C32.6447906,54.0745041 31.8596394,54.8305756 31.8596394,55.7799718 C31.8596394,56.7217116 32.6447906,57.5064947 33.630702,57.5064947 L75.8539492,57.5064947 L63.0569779,69.7988785 C62.3751883,70.4803 62.3751883,71.5789964 63.0569779,72.2297921 C63.7646078,72.9092995 64.8976109,72.9092995 65.5813882,72.2297921 L81.4056642,56.9916004 C82.1113064,56.3331482 82.1113064,55.2421083 81.4056642,54.5913125 L65.5813882,39.3454644 Z" id="Fill-1" fill="#D7D7D7" transform="translate(56.897268, 55.787628) scale(-1, 1) rotate(-90.000000) translate(-56.897268, -55.787628) "></path>
                        </g>
                    </g>
                </g>
            </g>
        </g>
    </g>
</svg>