<?xml version="1.0" encoding="UTF-8" standalone="no"?>
<svg width="14px" height="17px" viewBox="0 0 14 17" version="1.1" xmlns="http://www.w3.org/2000/svg" xmlns:xlink="http://www.w3.org/1999/xlink">
    <!-- Generator: Sketch 39.1 (31720) - http://www.bohemiancoding.com/sketch -->
    <title>Shape</title>
    <desc>Created with Sketch.</desc>
    <defs></defs>
    <g id="Page-1" stroke="none" stroke-width="1" fill="none" fill-rule="evenodd">
        <g id="414_StyleGuide-Copy-20" transform="translate(-590.000000, -212.000000)" stroke="#3C3C3C" stroke-width="0.25" fill="#3C3C3C">
            <path d="M591,226.299676 L591,214.68301 C591.01111,214.641745 591.025989,214.600876 591.032933,214.559016 C591.171805,213.699595 591.937785,213.008805 592.807324,213.004639 C594.961431,212.994918 597.115935,213.003845 599.270043,213.001663 C599.401178,213.001663 599.493429,213.045309 599.58568,213.137956 C600.791687,214.348327 602.001661,215.554929 603.210445,216.762126 L603.210445,226.134815 C603.201517,226.188578 603.189217,226.241747 603.183861,226.295907 C603.090618,227.261863 602.316306,227.991537 601.33924,227.994315 C598.512594,228.002449 595.686146,228.001259 592.8595,227.994513 C592.02091,227.992728 591.314447,227.443786 591.082927,226.649436 C591.049597,226.53437 591.027378,226.416329 591,226.299676 L591,226.299676 Z M598.496326,213.935083 L598.311031,213.935083 C596.534854,213.935083 594.758876,213.943217 592.982898,213.930917 C592.347458,213.926751 591.939769,214.385029 591.941752,214.967896 C591.954053,218.657336 591.947704,222.346776 591.948101,226.036414 C591.948101,226.683956 592.324643,227.060101 592.970995,227.060101 C595.720071,227.0603 598.469543,227.0603 601.21862,227.060101 C601.877668,227.060101 602.255202,226.686535 602.255599,226.031851 C602.255996,223.309954 602.255599,220.588256 602.255599,217.866557 L602.255599,217.68642 C601.608851,217.68642 600.988092,217.688404 600.367134,217.685825 C599.541638,217.682254 598.806606,217.142041 598.59314,216.343327 C598.516363,216.05606 598.509023,215.746573 598.500095,215.446212 C598.486208,214.952025 598.496326,214.45764 598.496326,213.935083 L598.496326,213.935083 Z M602.196479,216.751215 C601.274565,215.829103 600.36019,214.914728 599.446212,214.000353 L599.446212,214.127917 C599.446212,214.672297 599.445419,215.216478 599.446609,215.761055 C599.4478,216.350072 599.837436,216.74566 600.425064,216.750421 C600.870249,216.75419 601.31583,216.751215 601.761015,216.751215 C601.90822,216.751215 602.055028,216.751215 602.196479,216.751215 L602.196479,216.751215 Z" id="Shape"></path>
        </g>
    </g>
</svg>