<?xml version="1.0" encoding="UTF-8" standalone="no"?>
<svg width="16px" height="13px" viewBox="0 0 16 13" version="1.1" xmlns="http://www.w3.org/2000/svg" xmlns:xlink="http://www.w3.org/1999/xlink">
    <!-- Generator: Sketch 39.1 (31720) - http://www.bohemiancoding.com/sketch -->
    <title>Page 1</title>
    <desc>Created with Sketch.</desc>
    <defs></defs>
    <g id="Page-1" stroke="none" stroke-width="1" fill="none" fill-rule="evenodd">
        <g id="414_StyleGuide-Copy-20" transform="translate(-475.000000, -214.000000)" fill="#FFFFFF">
            <path d="M482.708333,223.109848 L485.511364,220.306818 L483.409091,220.306818 L483.409091,214 L482.007576,214 L482.007576,220.306818 L479.905303,220.306818 L482.708333,223.109848 L482.708333,223.109848 Z M489.015152,214 L484.810606,214 L484.810606,215.391004 L489.015152,215.391004 L489.015152,225.222632 L476.401515,225.222632 L476.401515,215.391004 L480.606061,215.391004 L480.606061,214 L476.401515,214 C475.627178,214 475,214.627178 475,215.401515 L475,225.212121 C475,225.986458 475.627178,226.613636 476.401515,226.613636 L489.015152,226.613636 C489.789489,226.613636 490.416667,225.986458 490.416667,225.212121 L490.416667,215.401515 C490.416667,214.627178 489.789489,214 489.015152,214 L489.015152,214 Z" id="Page-1"></path>
        </g>
    </g>
</svg>