<?xml version="1.0" encoding="UTF-8" standalone="no"?>
<svg width="29px" height="16px" viewBox="0 0 29 16" version="1.1" xmlns="http://www.w3.org/2000/svg" xmlns:xlink="http://www.w3.org/1999/xlink">
    <!-- Generator: Sketch 39.1 (31720) - http://www.bohemiancoding.com/sketch -->
    <title>Group 40</title>
    <desc>Created with Sketch.</desc>
    <defs></defs>
    <g id="Page-1" stroke="none" stroke-width="1" fill="none" fill-rule="evenodd">
        <g id="0101_Artboard-1-Copy-17" transform="translate(-124.000000, -859.000000)" stroke-width="0.5" stroke="#373737" fill="#373737">
            <g id="Group-13" transform="translate(104.000000, 838.000000)">
                <g id="Group-40" transform="translate(20.000000, 21.000000)">
                    <g id="Group-39">
                        <path d="M7.0540271,7.74903057 C6.61768143,7.44049225 5.79029754,7.10893943 4.57118537,6.75724891 L4.57118537,2.79587591 C5.29680174,2.82320564 5.82375536,3.11016785 6.15554536,3.65820812 C6.33398704,3.95667039 6.4420279,4.31124492 6.47827386,4.72334854 L7.8577117,4.72334854 C7.83123124,3.80420644 7.53847535,3.06413882 6.97874702,2.50459848 C6.41901868,1.94505814 5.61603809,1.62717019 4.57048136,1.55166101 L4.57048136,0.486520591 L3.82116571,0.486520591 L3.82116571,1.5681955 C2.76445638,1.57898355 1.94404984,1.9155708 1.35784104,2.57723804 C0.771625264,3.23819327 0.478869381,3.98112331 0.478869381,4.80533774 C0.478869381,5.72735666 0.750714129,6.44871779 1.29440363,6.96870194 C1.83809312,7.48939809 2.68012177,7.8605143 3.82116571,8.0834674 L3.82116571,12.5159115 C2.93244946,12.4404023 2.32323144,12.096623 1.9949336,11.4831353 C1.80951457,11.1415064 1.69590438,10.5992269 1.6533781,9.85629689 L0.258598461,9.85629689 C0.258598461,10.7891039 0.407771524,11.5291715 0.707490814,12.0764854 C1.25396846,13.0912815 2.29255481,13.6493835 3.82115874,13.7522296 L3.82115874,15.3301621 L4.57046742,15.3301621 L4.57046742,13.7522296 C5.52193101,13.6436298 6.24894145,13.4213959 6.75359683,13.0848159 C7.66253414,12.4778081 8.11699583,11.4529431 8.11699583,10.01094 C8.11770681,9.01266396 7.76361857,8.25894586 7.0540271,7.74903057 L7.0540271,7.74903057 Z M3.82186972,6.60261296 C3.2335698,6.48322517 2.76654749,6.27177215 2.41873259,5.96826826 C2.07160776,5.66404517 1.89874238,5.24475671 1.89874238,4.70750449 C1.89874238,4.26303671 2.04512032,3.83726103 2.33996035,3.43019903 C2.63480038,3.02312984 3.12831012,2.80664239 3.82186972,2.77931984 L3.82186972,6.60261296 L3.82186972,6.60261296 Z M6.43088226,11.5392259 C6.08932676,12.1742755 5.46966711,12.5130275 4.57118537,12.5561797 L4.57118537,8.27835717 C5.22779499,8.46247327 5.69550737,8.65809663 5.97361849,8.86378164 C6.45736273,9.21619856 6.69993886,9.73114109 6.69993886,10.4093572 C6.69993886,10.8372833 6.61002098,11.2148723 6.43088226,11.5392259 L6.43088226,11.5392259 Z" id="Fill-3"></path>
                        <path d="M21.5111461,11.1082117 C21.8529114,10.5530866 22.0240177,9.95060957 22.0240177,9.29977323 C22.0240177,9.11389196 21.9922048,8.89627485 21.9264337,8.64641818 C21.8873124,8.48925027 21.8211114,8.27465563 21.7260983,8.00162676 L20.0825738,8.00162676 L20.0825738,7.09539257 L21.2506283,7.09539257 C21.2506283,7.12460968 21.1676611,6.94225461 21.0017094,6.55084607 C20.8344723,6.15843004 20.7244253,5.87230385 20.6702574,5.69246749 C20.6212397,5.52421723 20.5778279,5.32775735 20.5438612,5.10409532 C20.5094731,4.8804333 20.4922727,4.64115523 20.4922727,4.38525364 C20.4922727,3.47901945 20.8065285,2.667489 21.4367726,1.94965481 C22.065727,1.23182061 22.9685133,0.873155382 24.143025,0.873155382 C25.2487348,0.873155382 26.0857672,1.22779066 26.6532324,1.93605374 C27.2202763,2.64482055 27.5117558,3.64676597 27.5276536,4.94289747 L26.1519553,4.94289747 C26.1519553,4.06537665 25.9761287,3.39942801 25.6270377,2.94253284 C25.2770999,2.4871489 24.7461594,2.25895319 24.0312327,2.25895319 C23.3373584,2.25895319 22.812458,2.47254035 22.4552075,2.89921092 C22.0983954,3.32638523 21.9195466,3.84473708 21.9195466,4.45477022 C21.9195466,4.75651245 21.9750043,5.06732206 22.0872179,5.38720409 C22.1994144,5.70657734 22.4358704,6.27631101 22.7965559,7.09539761 L25.2366889,7.09539761 L25.2366889,8.0016318 L23.1318813,8.0016318 C23.1808947,8.26861071 23.2178665,8.47816792 23.2402215,8.62878716 C23.2621466,8.77991015 23.2733241,8.93657432 23.2733241,9.09979218 C23.2733241,9.6806082 23.1245729,10.2543718 22.8270834,10.821083 C22.5300152,11.3867867 22.0631433,11.9489643 21.42903,12.5071118 C21.7708083,12.3041033 22.1078533,12.1424017 22.440595,12.0235183 C22.772047,11.9046349 23.097059,11.8446894 23.4147541,11.8446894 C23.7711491,11.8446894 24.244031,11.9479568 24.8312933,12.1544865 C25.4185427,12.3600138 25.8046012,12.4632811 25.9873062,12.4632811 C26.2207443,12.4632811 26.4344111,12.4108969 26.6270039,12.306622 C26.7452277,12.2426466 26.9275114,12.1086509 27.1699732,11.9051386 L27.786886,13.0818829 C27.509172,13.3438244 27.2611172,13.5377706 27.0435813,13.6662252 C26.6815975,13.86873 26.2972716,13.9704861 25.8910076,13.9704861 C25.5939394,13.9704861 25.0939606,13.8369941 24.391931,13.5695064 C23.6907527,13.3025225 23.1370358,13.1685268 22.7303549,13.1685268 C22.3533202,13.1685268 21.9965081,13.2435896 21.6594631,13.3952113 C21.4612771,13.4879 21.2059182,13.6445642 20.8942333,13.8657075 L20.1573814,12.6290127 C20.7179725,12.1701025 21.1693807,11.6633368 21.5111461,11.1082117 Z" id="Page-1"></path>
                    </g>
                    <g id="Page-1" transform="translate(10.724640, 4.365777)">
                        <polygon id="Fill-1" points="5.67550998 0 6.98524306 1.35339084 5.67550998 2.61946615"></polygon>
                        <path d="M0.873155382,2.61946615 L0,3.49262153 L0,1.74631076 C0,1.2660753 0.392919922,0.873155382 0.873155382,0.873155382 L5.67550998,0.873155382 L5.67550998,1.74631076 L0.873155382,1.74631076 L0.873155382,2.61946615 L0.873155382,2.61946615 Z" id="Fill-3"></path>
                        <polygon id="Fill-4" points="1.30973307 6.11208767 0 4.75869683 1.30973307 3.49262153"></polygon>
                        <path d="M6.11208767,5.23893229 L1.30973307,5.23893229 L1.30973307,4.36577691 L6.11208767,4.36577691 L6.11208767,3.49262153 L6.98524306,2.61946615 L6.98524306,4.36577691 C6.98524306,4.84601237 6.59232313,5.23893229 6.11208767,5.23893229 L6.11208767,5.23893229 Z" id="Fill-5"></path>
                    </g>
                </g>
            </g>
        </g>
    </g>
</svg>