<?xml version="1.0" encoding="UTF-8" standalone="no"?>
<svg width="20px" height="19px" viewBox="0 0 20 19" version="1.1" xmlns="http://www.w3.org/2000/svg" xmlns:xlink="http://www.w3.org/1999/xlink">
    <!-- Generator: Sketch 39.1 (31720) - http://www.bohemiancoding.com/sketch -->
    <title>Shape</title>
    <desc>Created with Sketch.</desc>
    <defs></defs>
    <g id="Page-1" stroke="none" stroke-width="1" fill="none" fill-rule="evenodd">
        <g id="414_StyleGuide-Copy-20" transform="translate(-473.000000, -342.000000)" stroke="#F5A623">
            <path d="M491.4446,348.998603 L485.870003,348.220873 L483.361434,343.270045 C483.277081,343.104417 483.104709,343 482.917666,343 C482.730624,343 482.558252,343.104417 482.473899,343.273646 L479.998338,348.238876 L474.42374,349.052612 C474.236698,349.081417 474.082663,349.207438 474.023983,349.383867 C473.965303,349.560297 474.016648,349.754729 474.152346,349.88075 L478.197596,353.729794 L477.262384,359.181105 C477.229377,359.364736 477.306394,359.548366 477.460429,359.656384 C477.544781,359.717595 477.647471,359.75 477.750161,359.75 C477.830846,359.75 477.907864,359.731997 477.981214,359.69239 L482.958009,357.103558 L487.949474,359.663586 C488.022824,359.699592 488.099842,359.717595 488.176859,359.717595 C488.448254,359.717595 488.671971,359.497958 488.671971,359.231513 C488.671971,359.191907 488.668304,359.155901 488.657301,359.119895 L487.692749,353.700989 L491.712327,349.830342 C491.85536,349.70072 491.903037,349.506288 491.844357,349.329858 C491.785677,349.153429 491.631642,349.027408 491.4446,348.998603 Z" id="Shape"></path>
        </g>
    </g>
</svg>