<?xml version="1.0" encoding="UTF-8" standalone="no"?>
<svg width="20px" height="19px" viewBox="0 0 20 19" version="1.1" xmlns="http://www.w3.org/2000/svg" xmlns:xlink="http://www.w3.org/1999/xlink">
    <!-- Generator: Sketch 39.1 (31720) - http://www.bohemiancoding.com/sketch -->
    <title>Shape</title>
    <desc>Created with Sketch.</desc>
    <defs></defs>
    <g id="Page-1" stroke="none" stroke-width="1" fill="none" fill-rule="evenodd">
        <g id="414_StyleGuide-Copy-20" transform="translate(-358.000000, -342.000000)" stroke="#F5A623" fill="#F5A623">
            <path d="M376.4446,348.998603 L370.870003,348.220873 L368.361434,343.270045 C368.277081,343.104417 368.104709,343 367.917666,343 C367.730624,343 367.558252,343.104417 367.473899,343.273646 L364.998338,348.238876 L359.42374,349.052612 C359.236698,349.081417 359.082663,349.207438 359.023983,349.383867 C358.965303,349.560297 359.016648,349.754729 359.152346,349.88075 L363.197596,353.729794 L362.262384,359.181105 C362.229377,359.364736 362.306394,359.548366 362.460429,359.656384 C362.544781,359.717595 362.647471,359.75 362.750161,359.75 C362.830846,359.75 362.907864,359.731997 362.981214,359.69239 L367.958009,357.103558 L372.949474,359.663586 C373.022824,359.699592 373.099842,359.717595 373.176859,359.717595 C373.448254,359.717595 373.671971,359.497958 373.671971,359.231513 C373.671971,359.191907 373.668304,359.155901 373.657301,359.119895 L372.692749,353.700989 L376.712327,349.830342 C376.85536,349.70072 376.903037,349.506288 376.844357,349.329858 C376.785677,349.153429 376.631642,349.027408 376.4446,348.998603 Z" id="Shape"></path>
        </g>
    </g>
</svg>