<?xml version="1.0" encoding="UTF-8" standalone="no"?>
<svg width="35px" height="20px" viewBox="0 0 35 20" version="1.1" xmlns="http://www.w3.org/2000/svg" xmlns:xlink="http://www.w3.org/1999/xlink">
    <!-- Generator: Sketch 39.1 (31720) - http://www.bohemiancoding.com/sketch -->
    <title>Page 1</title>
    <desc>Created with Sketch.</desc>
    <defs></defs>
    <g id="Page-1" stroke="none" stroke-width="1" fill="none" fill-rule="evenodd">
        <g id="0101_Artboard-1-Copy-17" transform="translate(-537.000000, -462.000000)" fill="#373737">
            <g id="Group-13" transform="translate(517.000000, 442.000000)">
                <g id="Group-6" transform="translate(20.000000, 20.000000)">
                    <g id="Page-1">
                        <path d="M24.8888889,0 C19.3044522,0 14.7777778,4.47693077 14.7777778,10 C14.7777778,15.5230692 19.3044522,20 24.8888889,20 C30.4733256,20 35,15.5230692 35,10 C35,4.47693077 30.4733256,0 24.8888889,0 L24.8888889,0 Z M24.8888889,18.7807615 C19.9857778,18.7807615 16.0105633,14.8499923 16.0105633,10.0007615 C16.0105633,5.15076923 19.9857856,1.22 24.8888889,1.22 C29.792,1.22 33.7664444,5.15076923 33.7664444,10.0007615 C33.7672144,14.8492308 29.792,18.7807615 24.8888889,18.7807615 L24.8888889,18.7807615 Z" id="Fill-1"></path>
                        <path d="M28.0863256,9.83000769 C27.5994367,9.50000769 26.6762144,9.14539231 25.3158889,8.76923846 L25.3158889,4.53231538 C26.1255556,4.56154615 26.7135478,4.86846923 27.08377,5.45463077 C27.2828811,5.77385385 27.4034367,6.15309231 27.4438811,6.59386154 L28.9831033,6.59386154 C28.9535556,5.61078462 28.6268889,4.81923846 28.0023256,4.22077692 C27.3777622,3.62231538 26.48177,3.28231538 25.3151033,3.20155385 L25.3151033,2.06232308 L24.4789922,2.06232308 L24.4789922,3.21923846 C23.2998811,3.23077692 22.3844444,3.59077692 21.7303333,4.29846923 C21.0762144,5.0054 20.7495478,5.80000769 20.7495478,6.68155385 C20.7495478,7.66770769 21.0528811,8.43924615 21.6595478,8.9954 C22.2662144,9.55231538 23.2057778,9.94924615 24.4789922,10.1877077 L24.4789922,14.9284692 C23.4873333,14.8477077 22.8075478,14.4800154 22.4412222,13.8238538 C22.2343256,13.4584615 22.1075556,12.8784615 22.0601033,12.0838538 L20.5037622,12.0838538 C20.5037622,13.0815462 20.6702144,13.8730923 21.0046511,14.4584769 C21.6144289,15.5438615 22.7733178,16.1407846 24.4789844,16.2507846 L24.4789844,17.9384769 L25.3150878,17.9384769 L25.3150878,16.2507846 C26.3767622,16.1346308 27.1879844,15.8969385 27.7510956,15.5369462 C28.7653178,14.8877154 29.2724211,13.7915615 29.2724211,12.2492538 C29.2732144,11.1815385 28.8781111,10.3753923 28.0863256,9.83000769 L28.0863256,9.83000769 Z M24.4797778,8.60384615 C23.8233333,8.47615385 23.3022144,8.24999231 22.9141111,7.92537692 C22.5267778,7.59999231 22.3338889,7.15153846 22.3338889,6.57691538 C22.3338889,6.10153077 22.4972222,5.64613846 22.8262144,5.21076154 C23.1552067,4.77537692 23.7058811,4.54383077 24.4797778,4.51460769 L24.4797778,8.60384615 L24.4797778,8.60384615 Z M27.391,13.8838462 C27.0098811,14.5630692 26.3184444,14.9253846 25.3158889,14.9715385 L25.3158889,10.3961538 C26.0485556,10.5930769 26.5704444,10.8023077 26.88077,11.0223 C27.4205478,11.3992308 27.6912222,11.9499923 27.6912222,12.6753846 C27.6912222,13.1330769 27.5908889,13.5369308 27.391,13.8838462 L27.391,13.8838462 Z" id="Fill-3"></path>
                        <path d="M10.1111111,0 C4.52667444,0 0,4.47692308 0,10 C0,15.5230769 4.52667444,20 10.1111111,20 C15.6955478,20 20.2222222,15.5230769 20.2222222,10 C20.2222222,4.47692308 15.6955478,0 10.1111111,0 L10.1111111,0 Z M10.1118967,18.7807692 C5.20800778,18.7807692 1.23278556,14.85 1.23278556,10.0007692 C1.23278556,5.15076923 5.20800778,1.22 10.1118967,1.22 C15.0142222,1.22 18.9894522,5.15076923 18.9894522,10.0007692 C18.9894367,14.8492308 15.0142222,18.7807692 10.1118967,18.7807692 L10.1118967,18.7807692 Z" id="Fill-1"></path>
                        <path d="M5.43977778,15.4338462 C6.13278556,14.9546154 6.69045222,14.4253846 7.11355556,13.8469231 C7.53666667,13.2684615 7.74744444,12.6392308 7.74744444,11.96 C7.74744444,11.7661538 7.70777778,11.5384615 7.62765889,11.2776923 C7.57944444,11.1138462 7.49699222,10.89 7.38033333,10.6046154 L5.34799222,10.6046154 L5.34799222,9.65923077 L6.79154778,9.65923077 C6.79154778,9.68923077 6.68888111,9.5 6.48355556,9.09076923 C6.27665889,8.68153846 6.14133333,8.38307692 6.07367444,8.19461538 C6.013,8.01846154 5.96011889,7.81384615 5.91733333,7.58076923 C5.87456333,7.34692308 5.85355556,7.09769231 5.85355556,6.83076923 C5.85355556,5.88461538 6.24244444,5.03769231 7.02177778,4.28846154 C7.79955556,3.53923077 8.91644444,3.16538462 10.3685478,3.16538462 C11.7358811,3.16538462 12.7703256,3.53538462 13.4718889,4.27461538 C14.1734367,5.01461538 14.5335556,6.06076923 14.5537856,7.41230769 L12.852,7.41230769 C12.852,6.49692308 12.635,5.80153846 12.2033333,5.32538462 C11.7701111,4.84923077 11.1144522,4.61153846 10.2301111,4.61153846 C9.37144444,4.61153846 8.72277778,4.83461538 8.281,5.28 C7.84,5.72615385 7.61833333,6.26692308 7.61833333,6.90307692 C7.61833333,7.21846154 7.68677778,7.54307692 7.826,7.87615385 C7.96443667,8.21 8.25688889,8.80384615 8.70333333,9.65846154 L11.7203333,9.65846154 L11.7203333,10.6038462 L9.11789667,10.6038462 C9.17856333,10.8830769 9.22444444,11.1007692 9.25166667,11.2592308 C9.27889667,11.4169231 9.29288889,11.58 9.29288889,11.75 C9.29288889,12.3561538 9.10934111,12.9553846 8.74144444,13.5461538 C8.37354778,14.1369231 7.79644444,14.7238462 7.01243667,15.3061538 C7.43477,15.0938462 7.85165889,14.9253846 8.26232556,14.8015385 C8.67220667,14.6769231 9.07432556,14.6146154 9.46709556,14.6146154 C9.90731778,14.6146154 10.4921989,14.7223077 11.2186511,14.9376923 C11.9451033,15.1530769 12.4218733,15.2607692 12.6482067,15.2607692 C12.9367622,15.2607692 13.2012067,15.2061538 13.4399844,15.0969231 C13.5862144,15.03 13.8117622,14.8907692 14.1112144,14.6784615 L14.8734367,15.9061538 C14.5304367,16.1792308 14.2232144,16.3823077 13.9540956,16.5153846 C13.5068733,16.7269231 13.0308733,16.8338462 12.5292067,16.8338462 C12.16131,16.8338462 11.5429767,16.6946154 10.6749844,16.4153846 C9.80854,16.1369231 9.12331778,15.9969231 8.62009556,15.9969231 C8.15342111,15.9969231 7.71242111,16.0761538 7.29553222,16.2338462 C7.05131778,16.3307692 6.73476222,16.4938462 6.34898444,16.7246154 L5.43977778,15.4338462 L5.43977778,15.4338462 Z" id="Fill-3"></path>
                    </g>
                </g>
            </g>
        </g>
    </g>
</svg>