<?xml version="1.0" encoding="UTF-8" standalone="no"?>
<svg width="15px" height="10px" viewBox="0 0 15 10" version="1.1" xmlns="http://www.w3.org/2000/svg" xmlns:xlink="http://www.w3.org/1999/xlink">
    <!-- Generator: Sketch 39.1 (31720) - http://www.bohemiancoding.com/sketch -->
    <title>Fill 1</title>
    <desc>Created with Sketch.</desc>
    <defs></defs>
    <g id="Login" stroke="none" stroke-width="1" fill="none" fill-rule="evenodd">
        <g id="305_Forgot_Login_Details_05" transform="translate(-1005.000000, -669.000000)" fill="#FFFFFF">
            <g id="Group-16" transform="translate(521.000000, 652.000000)">
                <path d="M493.945205,17.1503 C493.743546,16.9499 493.409401,16.9499 493.200707,17.1503 C492.999634,17.3444905 492.999634,17.6662596 493.200707,17.8604501 L496.974785,21.4941827 L484.522321,21.4941827 C484.231557,21.4941827 484,21.7171631 484,21.9971586 C484,22.2748962 484.231557,22.5063441 484.522321,22.5063441 L496.974785,22.5063441 L493.200707,26.1316092 C492.999634,26.3325737 492.999634,26.6566009 493.200707,26.8485333 C493.409401,27.0489333 493.743546,27.0489333 493.945205,26.8485333 L498.612095,22.3544917 C498.820202,22.1603012 498.820202,21.8385321 498.612095,21.6465997 L493.945205,17.1503 Z" id="Fill-1"></path>
            </g>
        </g>
    </g>
</svg>