<?xml version="1.0" encoding="UTF-8" standalone="no"?>
<svg width="25px" height="20px" viewBox="0 0 25 20" version="1.1" xmlns="http://www.w3.org/2000/svg" xmlns:xlink="http://www.w3.org/1999/xlink">
    <!-- Generator: Sketch 39.1 (31720) - http://www.bohemiancoding.com/sketch -->
    <title>gold-ingots</title>
    <desc>Created with Sketch.</desc>
    <defs></defs>
    <g id="Page-1" stroke="none" stroke-width="1" fill="none" fill-rule="evenodd">
        <g id="0101_Artboard-1-Copy-17" transform="translate(-124.000000, -462.000000)" fill="#373737">
            <g id="Group-13" transform="translate(104.000000, 442.000000)">
                <g id="gold-ingots" transform="translate(20.000000, 20.000000)">
                    <path d="M17.6578125,11.0761538 C17.453125,11.4576923 17.071875,11.6923077 16.659375,11.6923077 L7.71484375,11.6923077 C7.303125,11.6923077 6.92109375,11.4576923 6.7171875,11.0761538 C6.509375,10.6976923 6.509375,10.2261538 6.7171875,9.84692308 L8.95078125,5.71538462 C9.15859375,5.33384615 9.53984375,5.1 9.9515625,5.1 L14.4226563,5.1 C14.834375,5.1 15.2164063,5.33384615 15.4203125,5.71538462 L17.6578125,9.84692308 C17.8648438,10.2284615 17.8648438,10.6976923 17.6578125,11.0761538 L17.6578125,11.0761538 Z M11.0960937,17.3830769 L8.859375,13.2546154 C8.6546875,12.8730769 8.2734375,12.6384615 7.8609375,12.6384615 L3.390625,12.6384615 C2.978125,12.6384615 2.596875,12.8730769 2.38984375,13.2546154 L0.15546875,17.3830769 C-0.0515625,17.7646154 -0.0515625,18.2338462 0.15546875,18.6153846 C0.36015625,18.9969231 0.74140625,19.2315385 1.15390625,19.2315385 L10.0953125,19.2315385 C10.5070312,19.2315385 10.8890625,18.9969231 11.0960937,18.6153846 C11.3039062,18.2338462 11.3039062,17.7646154 11.0960937,17.3830769 L11.0960937,17.3830769 Z M24.221875,17.3830769 L21.9851562,13.2546154 C21.7773437,12.8730769 21.3992187,12.6384615 20.9835937,12.6384615 L16.5132812,12.6384615 C16.1007812,12.6384615 15.7195312,12.8730769 15.5148437,13.2546154 L13.278125,17.3830769 C13.0734375,17.7646154 13.0734375,18.2338462 13.278125,18.6153846 C13.4859375,18.9969231 13.8671875,19.2315385 14.2789062,19.2315385 L23.2210937,19.2315385 C23.6328125,19.2315385 24.0140625,18.9969231 24.221875,18.6153846 C24.4265625,18.2338462 24.4265625,17.7646154 24.221875,17.3830769 L24.221875,17.3830769 Z M20.0710937,5.50230769 L19.675,7.34692308 L17.8007812,7.73769231 L19.675,8.13153846 L20.0710937,9.97307692 L20.4710937,8.13153846 L22.3453125,7.73769231 L20.4710937,7.34692308 L20.0710937,5.50230769 Z M5.55390625,3.35384615 L5.1578125,5.19615385 L3.28359375,5.58923077 L5.1578125,5.98 L5.55390625,7.82230769 L5.95390625,5.98 L7.828125,5.58923077 L5.95390625,5.19615385 L5.55390625,3.35384615 Z M15.0875,0.43 L14.6882812,2.27230769 L12.8140625,2.66538462 L14.6882812,3.05615385 L15.0875,4.89846154 L15.484375,3.05615385 L17.3585937,2.66538462 L15.484375,2.27230769 L15.0875,0.43 Z" id="Fill-1"></path>
                </g>
            </g>
        </g>
    </g>
</svg>