<?xml version="1.0" encoding="UTF-8" standalone="no"?>
<svg width="27px" height="27px" viewBox="0 0 27 27" version="1.1" xmlns="http://www.w3.org/2000/svg" xmlns:xlink="http://www.w3.org/1999/xlink">
    <!-- Generator: Sketch 39.1 (31720) - http://www.bohemiancoding.com/sketch -->
    <title>Group 8</title>
    <desc>Created with Sketch.</desc>
    <defs></defs>
    <g id="Page-1" stroke="none" stroke-width="1" fill="none" fill-rule="evenodd">
        <g id="414_StyleGuide-Copy-20" transform="translate(-129.000000, -1058.000000)">
            <g id="Account-Copy-4" transform="translate(99.000000, 1009.000000)">
                <g id="Group-8" transform="translate(31.000000, 50.000000)">
                    <circle id="Oval-1153" stroke="#FFC83D" stroke-width="2" fill="#FFC83D" cx="12.5" cy="12.5" r="12.5"></circle>
                    <path d="M9.07142857,10.1428571 C9.66316014,10.1428571 10.1428571,9.66316143 10.1428571,9.07142857 C10.1428571,8.47969571 9.66316014,8 9.07142857,8 C8.479697,8 8,8.47969571 8,9.07142857 C8,9.66316143 8.479697,10.1428571 9.07142857,10.1428571 L9.07142857,10.1428571 Z M12.7142857,10.1428571 C13.3060186,10.1428571 13.7857143,9.66316143 13.7857143,9.07142857 C13.7857143,8.47969571 13.3060186,8 12.7142857,8 C12.1225529,8 11.6428571,8.47969571 11.6428571,9.07142857 C11.6428571,9.66316143 12.1225529,10.1428571 12.7142857,10.1428571 L12.7142857,10.1428571 Z M16.3571429,10.1428571 C16.9488757,10.1428571 17.4285714,9.66316143 17.4285714,9.07142857 C17.4285714,8.47969571 16.9488757,8 16.3571429,8 C15.76541,8 15.2857143,8.47969571 15.2857143,9.07142857 C15.2857143,9.66316143 15.76541,10.1428571 16.3571429,10.1428571 L16.3571429,10.1428571 Z M9.07142857,13.5714286 C9.66316014,13.5714286 10.1428571,13.0917329 10.1428571,12.5 C10.1428571,11.9082671 9.66316014,11.4285714 9.07142857,11.4285714 C8.479697,11.4285714 8,11.9082671 8,12.5 C8,13.0917329 8.479697,13.5714286 9.07142857,13.5714286 L9.07142857,13.5714286 Z M12.7142857,13.5714286 C13.3060186,13.5714286 13.7857143,13.0917329 13.7857143,12.5 C13.7857143,11.9082671 13.3060186,11.4285714 12.7142857,11.4285714 C12.1225529,11.4285714 11.6428571,11.9082671 11.6428571,12.5 C11.6428571,13.0917329 12.1225529,13.5714286 12.7142857,13.5714286 L12.7142857,13.5714286 Z M16.3571429,13.5714286 C16.9488757,13.5714286 17.4285714,13.0917329 17.4285714,12.5 C17.4285714,11.9082671 16.9488757,11.4285714 16.3571429,11.4285714 C15.76541,11.4285714 15.2857143,11.9082671 15.2857143,12.5 C15.2857143,13.0917329 15.76541,13.5714286 16.3571429,13.5714286 L16.3571429,13.5714286 Z M9.07142857,17 C9.66316014,17 10.1428571,16.520303 10.1428571,15.9285714 C10.1428571,15.3368399 9.66316014,14.8571429 9.07142857,14.8571429 C8.479697,14.8571429 8,15.3368399 8,15.9285714 C8,16.520303 8.479697,17 9.07142857,17 L9.07142857,17 Z M12.7142857,17 C13.3060186,17 13.7857143,16.520303 13.7857143,15.9285714 C13.7857143,15.3368399 13.3060186,14.8571429 12.7142857,14.8571429 C12.1225529,14.8571429 11.6428571,15.3368399 11.6428571,15.9285714 C11.6428571,16.520303 12.1225529,17 12.7142857,17 L12.7142857,17 Z M16.3571429,17 C16.9488757,17 17.4285714,16.520303 17.4285714,15.9285714 C17.4285714,15.3368399 16.9488757,14.8571429 16.3571429,14.8571429 C15.76541,14.8571429 15.2857143,15.3368399 15.2857143,15.9285714 C15.2857143,16.520303 15.76541,17 16.3571429,17 L16.3571429,17 Z" id="Page-1" fill="#373737"></path>
                </g>
            </g>
        </g>
    </g>
</svg>