<?xml version="1.0" encoding="UTF-8" standalone="no"?>
<svg width="52px" height="52px" viewBox="0 0 52 52" version="1.1" xmlns="http://www.w3.org/2000/svg" xmlns:xlink="http://www.w3.org/1999/xlink">
    <!-- Generator: Sketch 40.1 (33804) - http://www.bohemiancoding.com/sketch -->
    <title>Group 13</title>
    <desc>Created with Sketch.</desc>
    <defs></defs>
    <g id="Page-1" stroke="none" stroke-width="1" fill="none" fill-rule="evenodd">
        <g id="416_StyleGuide-Copy-22" transform="translate(-976.000000, -729.000000)">
            <g id="Group-13" transform="translate(977.000000, 730.000000)">
                <circle id="Oval" stroke="#171717" stroke-width="1.5" cx="25" cy="25" r="25"></circle>
                <path d="M34.7641515,18.1369293 C34.6193019,18.0562931 34.4252205,18 34.1574336,18 L15.521348,18 C15.2532765,18 15.058626,18.0562931 14.9143455,18.1369293 C14.3770644,18.387662 14,18.9600264 14,19.6264155 L14,30.4060966 C14,31.0715729 14.3770644,31.6436329 14.9134918,31.8955828 C15.0577722,31.9759146 15.2527074,32.0325121 15.5210634,32.0325121 L34.157149,32.0325121 C34.4246513,32.0325121 34.6190173,31.9756104 34.7638669,31.8961914 C35.3014326,31.6448501 35.6782124,31.0724857 35.6782124,30.4064009 L35.6782124,19.6261112 C35.678497,18.9600264 35.3017172,18.387662 34.7641515,18.1369293 L34.7641515,18.1369293 Z M28.6002164,25.0159518 L34.6258471,19.7499561 L34.6258471,30.2819474 L28.6002164,25.0159518 L28.6002164,25.0159518 Z M33.6767833,19.1255586 L25.276074,26.4674021 C25.0566652,26.6587988 24.6215472,26.6587988 24.4021384,26.4674021 L16.0019983,19.1255586 L33.6767833,19.1255586 L33.6767833,19.1255586 Z M15.0526499,30.2828602 L15.0526499,19.7499561 L21.0785651,25.0171689 L15.0526499,30.2828602 L15.0526499,30.2828602 Z M16.0022829,30.9063449 L21.9103833,25.7438069 L23.7362285,27.3391851 C24.0347497,27.5999593 24.4263275,27.7444958 24.8392485,27.7444958 C25.2524541,27.7444958 25.6440319,27.5999593 25.9422685,27.3391851 L27.7689674,25.7428941 L33.6767833,30.9063449 L16.0022829,30.9063449 L16.0022829,30.9063449 Z" id="Shape" fill="#171717"></path>
            </g>
        </g>
    </g>
</svg>