<?xml version="1.0" encoding="UTF-8" standalone="no"?>
<svg width="22px" height="29px" viewBox="0 0 22 29" version="1.1" xmlns="http://www.w3.org/2000/svg" xmlns:xlink="http://www.w3.org/1999/xlink">
    <!-- Generator: Sketch 39.1 (31720) - http://www.bohemiancoding.com/sketch -->
    <title>investment-graph-board</title>
    <desc>Created with Sketch.</desc>
    <defs></defs>
    <g id="Page-1" stroke="none" stroke-width="1" fill="none" fill-rule="evenodd">
        <g id="0101_Artboard-1-Copy-17" transform="translate(-537.000000, -858.000000)" fill="#373737">
            <g id="Group-13" transform="translate(517.000000, 838.000000)">
                <g id="Group-8-Copy">
                    <path d="M41.3273817,24.4843463 L34.3817568,24.4843463 L34.3817568,23.7276507 C34.3817568,23.3565336 34.0809282,23.0550324 33.7091384,23.0550324 L31.672282,23.0550324 L31.672282,20.6726183 C31.672282,20.3008285 31.3714535,20 30.9996637,20 C30.6285465,20 30.3270454,20.3008285 30.3270454,20.6726183 L30.3270454,23.0550324 L28.3374404,23.0550324 C27.9656506,23.0550324 27.6648221,23.3565336 27.6648221,23.7276507 L27.6648221,24.4843463 L20.6726183,24.4843463 C20.3015012,24.4843463 20,24.7858475 20,25.1569647 L20,39.224945 C20,39.5960621 20.3015012,39.8975633 20.6726183,39.8975633 L23.1804757,39.8975633 L23.1804757,40.3087012 C23.1804757,40.6798184 23.4813043,40.9813196 23.853094,40.9813196 L25.6535251,40.9813196 L24.7379234,45.5162804 C24.7379234,45.5167849 24.7379234,45.5174575 24.7372508,45.5181301 L24.2432127,47.96562 C24.1704017,48.3295065 24.4054818,48.6848172 24.770041,48.7584689 C24.8147701,48.7670448 24.8593311,48.7715849 24.9033876,48.7715849 C25.2173322,48.7715849 25.497814,48.550798 25.5622172,48.2316406 L25.947123,46.3254403 L30.3270454,46.3254403 L30.3270454,48.0989666 C30.3270454,48.4700838 30.6285465,48.7715849 30.9996637,48.7715849 C31.3714535,48.7715849 31.672282,48.4700838 31.672282,48.0989666 L31.672282,46.3254403 L36.052877,46.3254403 L36.4377828,48.2316406 C36.502186,48.550798 36.7826678,48.7715849 37.0959398,48.7715849 C37.1399963,48.7715849 37.1852299,48.7670448 37.229959,48.7584689 C37.5938455,48.6848172 37.8295983,48.3295065 37.7561147,47.96562 L37.2620766,45.5181301 L37.2620766,45.5162804 L36.3464749,40.9813196 L38.146906,40.9813196 C38.5180231,40.9813196 38.8195243,40.6798184 38.8195243,40.3087012 L38.8195243,39.8975633 L41.3273817,39.8975633 C41.6984988,39.8975633 42,39.5960621 42,39.224945 L42,25.1569647 C42,24.7858475 41.6984988,24.4843463 41.3273817,24.4843463 L41.3273817,24.4843463 Z M29.0100587,25.6279656 L33.0365201,25.6279656 L33.0365201,24.400269 L29.0100587,24.400269 L29.0100587,25.6279656 Z M24.2951724,33.355173 C24.5112511,33.355173 24.7155589,33.4064602 24.8981748,33.4950777 L26.7438394,32.1932249 C26.7255106,32.0953589 26.715085,31.9954751 26.715085,31.8923964 C26.715085,30.997814 27.442858,30.2693684 28.3374404,30.2693684 C29.2320227,30.2693684 29.9604684,30.997814 29.9604684,31.8923964 C29.9604684,31.9554543 29.9559282,32.0171671 29.9486976,32.0783753 L31.7550141,33.1666718 C32.0085912,32.9959949 32.3134554,32.896111 32.6405161,32.896111 C32.766632,32.896111 32.8882078,32.912422 33.0057478,32.9401675 L35.3960652,29.9192705 C35.278357,29.6932708 35.2107588,29.4370032 35.2107588,29.1650972 C35.2107588,28.2612664 35.9457625,27.5255901 36.850266,27.5255901 C37.7540969,27.5255901 38.4897731,28.2612664 38.4897731,29.1650972 C38.4897731,30.0689281 37.7540969,30.8046044 36.850266,30.8046044 C36.7123792,30.8046044 36.5790327,30.7856029 36.4508989,30.7534854 L34.0599089,33.7748869 C34.167696,33.9891158 34.2300813,34.2300813 34.2300813,34.4850037 C34.2300813,35.3619298 33.5167696,36.0745689 32.6405161,36.0745689 C31.7642626,36.0745689 31.0516235,35.3619298 31.0516235,34.4850037 C31.0516235,34.4291763 31.0548184,34.373349 31.0600312,34.3181943 L29.2543873,33.2297297 C28.9929069,33.4096551 28.6776171,33.5154244 28.3374404,33.5154244 C28.0393023,33.5154244 27.7599976,33.4326923 27.5197047,33.2921151 L25.6745445,34.5934634 C25.6797572,34.64206 25.6824477,34.6918338 25.6824477,34.7424483 C25.6824477,35.5077198 25.0604439,36.1297236 24.2951724,36.1297236 C23.5305736,36.1297236 22.9078972,35.5077198 22.9078972,34.7424483 C22.9078972,33.9778495 23.5305736,33.355173 24.2951724,33.355173 L24.2951724,33.355173 Z M26.2183564,44.9802036 L27.0256665,40.9813196 L30.3270454,40.9813196 L30.3270454,44.9802036 L26.2183564,44.9802036 Z M35.780971,44.9802036 L31.672282,44.9802036 L31.672282,40.9813196 L34.9736609,40.9813196 L35.780971,44.9802036 Z M24.5257124,39.6360829 L37.4742876,39.6360829 L37.4742876,38.7519261 L24.5257124,38.7519261 L24.5257124,39.6360829 Z" id="investment-graph-board"></path>
                </g>
            </g>
        </g>
    </g>
</svg>