<?xml version="1.0" encoding="UTF-8" standalone="no"?>
<svg width="18px" height="23px" viewBox="0 0 18 23" version="1.1" xmlns="http://www.w3.org/2000/svg" xmlns:xlink="http://www.w3.org/1999/xlink">
    <!-- Generator: Sketch 39.1 (31720) - http://www.bohemiancoding.com/sketch -->
    <title>investment-certificate</title>
    <desc>Created with Sketch.</desc>
    <defs></defs>
    <g id="Page-1" stroke="none" stroke-width="1" fill="none" fill-rule="evenodd">
        <g id="0101_Artboard-1-Copy-17" transform="translate(-124.000000, -662.000000)" fill="#000000">
            <g id="Group-13" transform="translate(104.000000, 642.000000)">
                <path d="M22.9252857,24.928 C23.0128571,23.8454286 23.9314286,22.9967143 25.0161429,22.9967143 C25.0731429,22.9967143 25.1311429,22.9994286 25.1885714,23.0038571 C26.3431429,23.0977143 27.2058571,24.1127143 27.1127143,25.2672857 C27.0251429,26.3498571 26.1065714,27.1987143 25.0222857,27.1987143 C24.9648571,27.1987143 24.9068571,27.1958571 24.8492857,27.1914286 C23.6952857,27.0977143 22.832,26.0825714 22.9252857,24.928 L22.9252857,24.928 Z M23.6685714,28.0462857 L23.0614286,30.918 L24.5854286,31.1278571 L24.6004286,30.4531429 C24.601,30.4514286 24.601,30.4492857 24.601,30.4475714 L24.6495714,28.3191429 C24.3012857,28.279 23.9715714,28.1858571 23.6685714,28.0462857 L23.6685714,28.0462857 Z M25.7941429,28.2461429 L25.7471429,30.317 L26.904,30.1367143 L26.3682857,28.0435714 C26.1852857,28.1282857 25.9932857,28.197 25.7941429,28.2461429 L25.7941429,28.2461429 Z M37.8604286,20.5714286 L37.8604286,37.6741429 C37.8604286,37.6768571 37.8594286,37.6802857 37.8594286,37.6835714 C37.8588571,37.7165714 37.856,37.75 37.8498571,37.7824286 C37.8492857,37.7857143 37.8477143,37.789 37.8471429,37.793 C37.841,37.8214286 37.8325714,37.8498571 37.822,37.8772857 C37.8185714,37.8867143 37.8141429,37.8957143 37.8102857,37.9051429 C37.8002857,37.9268571 37.789,37.9487143 37.7768571,37.9692857 C37.7717143,37.9777143 37.7667143,37.986 37.7611429,37.9944286 C37.7427143,38.0217143 37.7221429,38.0485714 37.6987143,38.0725714 L33.3354286,42.5524286 C33.308,42.5802857 33.2784286,42.6048571 33.2471429,42.6267143 C33.2327143,42.6361429 33.2165714,42.6428571 33.2014286,42.6512857 C33.183,42.6612857 33.1662857,42.6724286 33.1472857,42.6808571 C33.1288571,42.6885714 33.1094286,42.6925714 33.0898571,42.6981429 C33.0731429,42.7031429 33.0564286,42.7104286 33.039,42.7137143 C33.0044286,42.721 32.9692857,42.7237143 32.9341429,42.7242857 C32.9314286,42.7242857 32.9285714,42.7248571 32.9257143,42.7248571 L20.5714286,42.7248571 C20.2555714,42.7248571 20,42.4692857 20,42.1534286 L20,20.5714286 C20,20.2561429 20.2555714,20 20.5714286,20 L37.289,20 C37.6048571,20 37.8604286,20.2561429 37.8604286,20.5714286 L37.8604286,20.5714286 Z M29.4151429,23.5072857 C29.4151429,23.8225714 29.6707143,24.0787143 29.9865714,24.0787143 L35.1077143,24.0787143 C35.423,24.0787143 35.6791429,23.8225714 35.6791429,23.5072857 C35.6791429,23.1914286 35.423,22.9358571 35.1077143,22.9358571 L29.9865714,22.9358571 C29.6707143,22.9358571 29.4151429,23.1914286 29.4151429,23.5072857 L29.4151429,23.5072857 Z M29.4151429,25.9352857 C29.4151429,26.2505714 29.6707143,26.5067143 29.9865714,26.5067143 L35.1077143,26.5067143 C35.423,26.5067143 35.6791429,26.2505714 35.6791429,25.9352857 C35.6791429,25.6194286 35.423,25.3638571 35.1077143,25.3638571 L29.9865714,25.3638571 C29.6707143,25.3638571 29.4151429,25.6194286 29.4151429,25.9352857 L29.4151429,25.9352857 Z M29.4151429,28.3632857 C29.4151429,28.6785714 29.6707143,28.9347143 29.9865714,28.9347143 L35.1077143,28.9347143 C35.423,28.9347143 35.6791429,28.6785714 35.6791429,28.3632857 C35.6791429,28.0474286 35.423,27.7918571 35.1077143,27.7918571 L29.9865714,27.7918571 C29.6707143,27.7918571 29.4151429,28.0474286 29.4151429,28.3632857 L29.4151429,28.3632857 Z M22.2974286,31.9665714 L25.0641429,32.3471429 C25.0898571,32.351 25.116,32.3527143 25.1417143,32.3527143 C25.2768571,32.3527143 25.4084286,32.3047143 25.5122857,32.216 C25.6367143,32.1104286 25.7092857,31.957 25.7131429,31.7941429 L25.7204286,31.4782857 L27.702,31.1691429 C27.861,31.144 28.0022857,31.053 28.091,30.9185714 C28.1797143,30.784 28.2075714,30.6188571 28.1674286,30.4625714 L27.365,27.3281429 C27.8621429,26.8064286 28.1902857,26.1205714 28.2522857,25.3594286 C28.3961429,23.5764286 27.063,22.0088571 25.2807143,21.865 C25.1931429,21.8577143 25.1038571,21.8538571 25.0161429,21.8538571 C23.3404286,21.8538571 21.9218571,23.1635714 21.7862857,24.836 C21.7098571,25.784 22.0507143,26.6707143 22.6551429,27.3152857 L21.8164286,31.2818571 C21.7834286,31.4374286 21.8164286,31.5992857 21.9078571,31.7288571 C21.9988571,31.8588571 22.14,31.9447143 22.2974286,31.9665714 L22.2974286,31.9665714 Z M35.1077143,35.1824286 C35.423,35.1824286 35.6791429,34.9262857 35.6791429,34.611 C35.6791429,34.2951429 35.423,34.0395714 35.1077143,34.0395714 L22.6931429,34.0395714 C22.3778571,34.0395714 22.1217143,34.2951429 22.1217143,34.611 C22.1217143,34.9262857 22.3778571,35.1824286 22.6931429,35.1824286 L35.1077143,35.1824286 Z M35.9347143,38.2455714 L33.4971429,38.2455714 L33.4971429,40.7477143 L35.9347143,38.2455714 Z" id="investment-certificate"></path>
            </g>
        </g>
    </g>
</svg>