<?xml version="1.0" encoding="UTF-8" standalone="no"?>
<svg width="18px" height="18px" viewBox="0 0 18 18" version="1.1" xmlns="http://www.w3.org/2000/svg" xmlns:xlink="http://www.w3.org/1999/xlink">
    <!-- Generator: Sketch 39.1 (31720) - http://www.bohemiancoding.com/sketch -->
    <title>Group 32</title>
    <desc>Created with Sketch.</desc>
    <defs></defs>
    <g id="Page-1" stroke="none" stroke-width="1" fill="none" fill-rule="evenodd">
        <g id="414_StyleGuide-Copy-20" transform="translate(-129.000000, -498.000000)" fill="#000000">
            <g id="Group-32" transform="translate(129.000000, 498.000000)">
                <g id="Group-33">
                    <path d="M2.32972011,7.56788712 C2.32972011,4.67928282 4.68157256,2.32858065 7.57159036,2.32858065 C10.4616082,2.32858065 12.8134606,4.67928282 12.8134606,7.56788712 C12.8134606,10.4564914 10.4616082,12.8071936 7.57159036,12.8071936 C4.68157256,12.8071936 2.32972011,10.4564914 2.32972011,7.56788712 M17.488044,14.6025293 L14.1635334,11.2784804 C14.7844038,10.1817189 15.1431807,8.91613531 15.1431807,7.56788712 C15.1431807,3.39507059 11.7464488,0 7.57159036,0 C3.39673192,0 0,3.39507059 0,7.56788712 C0,11.7407036 3.39673192,15.1357742 7.57159036,15.1357742 C9.13250283,15.1357742 10.5850833,14.6595795 11.7918783,13.8480691 L15.0173758,17.071989 C15.3586798,17.4119618 15.8059861,17.5831125 16.2532923,17.5831125 C16.6994337,17.5831125 17.14674,17.4119618 17.488044,17.071989 C18.170652,16.3897149 18.170652,15.2848034 17.488044,14.6025293" id="Fill-1"></path>
                </g>
            </g>
        </g>
    </g>
</svg>