<?xml version="1.0" encoding="UTF-8" standalone="no"?>
<svg width="11px" height="17px" viewBox="0 0 11 17" version="1.1" xmlns="http://www.w3.org/2000/svg" xmlns:xlink="http://www.w3.org/1999/xlink">
    <!-- Generator: Sketch 39.1 (31720) - http://www.bohemiancoding.com/sketch -->
    <title>unlocked</title>
    <desc>Created with Sketch.</desc>
    <defs></defs>
    <g id="Page-1" stroke="none" stroke-width="1" fill="none" fill-rule="evenodd">
        <g id="414_StyleGuide-Copy-20" transform="translate(-818.000000, -343.000000)" fill="#171717">
            <g id="unlocked" transform="translate(818.000000, 343.000000)">
                <g id="Capa_1">
                    <g id="Group">
                        <path d="M3.20699401,7.06675024 L3.20699401,4.41658631 C3.20699401,3.15107811 4.24119162,2.12150434 5.51238323,2.12150434 C6.78357485,2.12150434 7.81777246,3.15107811 7.81777246,4.41658631 C7.81777246,4.56203477 7.79470129,7.06675011 7.96466084,7.06675011 L8.3956296,7.06675011 L8.97920866,7.06675011 C9.16129847,7.06675011 9.0034012,4.59882872 9.0034012,4.41658631 C9.0034012,4.27776904 8.99518418,4.14082696 8.97920891,4.00621679 C8.77464316,2.28251306 7.29794254,0.941176471 5.51238323,0.941176471 C3.58738323,0.941176471 2.02136527,2.50019286 2.02136527,4.41658631 L2.02136527,7.06675024 L1.80044311,7.06675024 C0.832640719,7.06675024 0.0453173653,7.85055352 0.0453173653,8.81402893 L0.0453173653,16.3099634 C0.0453173653,16.6359306 0.310700599,16.9001273 0.638131737,16.9001273 L10.3866347,16.9001273 C10.7140659,16.9001273 10.9794491,16.6359306 10.9794491,16.3099634 L10.9794491,8.8140945 C10.9794491,7.93830469 10.3289468,7.21100534 9.48372773,7.08579662 C9.39903965,7.07325113 9.31239675,7.06675024 9.22425749,7.06675024 L3.20699401,7.06675024 Z M9.79382036,15.719865 L1.23094611,15.719865 L1.23094611,8.8140945 C1.23094611,8.50143877 1.4864491,8.24714368 1.80044311,8.24714368 L9.22425749,8.24714368 C9.53831737,8.24714368 9.79375449,8.50150434 9.79375449,8.8140945 L9.79375449,15.719865 L9.79382036,15.719865 Z" id="Shape"></path>
                        <path d="M5.51238323,10.7659016 C5.1849521,10.7659016 4.91956886,11.0300984 4.91956886,11.3560656 L4.91956886,13.1047213 C4.91956886,13.4306885 5.1849521,13.6948852 5.51238323,13.6948852 C5.83981437,13.6948852 6.1051976,13.4306885 6.1051976,13.1047213 L6.1051976,11.3560656 C6.1051976,11.0300984 5.8397485,10.7659016 5.51238323,10.7659016 L5.51238323,10.7659016 Z" id="Shape"></path>
                    </g>
                </g>
            </g>
        </g>
    </g>
</svg>