<?xml version="1.0" encoding="UTF-8" standalone="no"?>
<svg width="90px" height="90px" viewBox="0 0 90 90" version="1.1" xmlns="http://www.w3.org/2000/svg" xmlns:xlink="http://www.w3.org/1999/xlink">
    <!-- Generator: Sketch 39.1 (31720) - http://www.bohemiancoding.com/sketch -->
    <title>Group 4</title>
    <desc>Created with Sketch.</desc>
    <defs></defs>
    <g id="Page-1" stroke="none" stroke-width="1" fill="none" fill-rule="evenodd">
        <g id="416_StyleGuide-Copy-22" transform="translate(-328.000000, -258.000000)">
            <g id="Group-5" transform="translate(323.000000, 260.000000)">
                <g id="Group-4" transform="translate(7.000000, 0.000000)">
                    <circle id="Oval-1" stroke="#171717" stroke-width="3" cx="43" cy="43" r="43"></circle>
                    <g id="Group-8" transform="translate(27.000000, 19.000000)" stroke="#FFFFFF">
                        <path d="M15.5208848,29.3652357 C14.5421833,29.3652357 13.7489448,30.150155 13.7489448,31.1185922 L13.7489448,36.3137875 C13.7489448,37.2822248 14.5421833,38.067144 15.5208848,38.067144 C16.4995863,38.067144 17.2928248,37.2822248 17.2928248,36.3137875 L17.2928248,31.1185922 C17.2928248,30.150155 16.4993895,29.3652357 15.5208848,29.3652357 L15.5208848,29.3652357 Z" id="Shape" stroke-width="0.799999952" fill="#171717"></path>
                        <path d="M15.999596,-5.68434189e-14 C9.53503112,-5.68434189e-14 4.28257219,6.01739482 4.28257219,13.4234192 L4.28257219,20.125177 L3.81469931,20.125177 C1.71310968,20.125177 0,22.0880049 0,24.4954257 L0,42.8804184 C0,45.2878392 1.71310968,47.2506671 3.81469931,47.2506671 L28.1855027,47.2506671 C30.2868903,47.2506671 32,45.2878392 32,42.8804184 L32,24.4954257 C32,22.0880049 30.2868903,20.125177 28.1855027,20.125177 L27.7166197,20.125177 L27.7166197,13.4234192 C27.7166197,6.01739482 22.4641608,-5.68434189e-14 15.999596,-5.68434189e-14 L15.999596,-5.68434189e-14 Z M7.22455525,13.4234192 C7.22455525,7.86890092 11.1677378,3.35145748 16.0161614,3.35145748 C20.864585,3.35145748 24.8079696,7.86890092 24.8079696,13.4234192 L24.8079696,20.125177 L7.22455525,20.125177 L7.22455525,13.4234192 Z M29.058219,24.4764478 L29.058219,42.8623662 C29.058219,43.4173552 28.6707491,43.8621795 28.1855027,43.8621795 L3.83045669,43.8621795 C3.34601836,43.8621795 2.95774043,43.4173552 2.95774043,42.8623662 L2.95774043,24.4764478 C2.95774043,23.9214588 3.34601836,23.4766345 3.83045669,23.4766345 L28.1855027,23.4766345 C28.6707491,23.4766345 29.058219,23.9214588 29.058219,24.4764478 L29.058219,24.4764478 Z" id="Fill-6" stroke-width="0.5" fill="#000000"></path>
                    </g>
                </g>
            </g>
        </g>
    </g>
</svg>