<?xml version="1.0" encoding="UTF-8"?>
<svg width="19px" height="13px" viewBox="0 0 19 13" version="1.1" xmlns="http://www.w3.org/2000/svg" xmlns:xlink="http://www.w3.org/1999/xlink">
    <!-- Generator: Sketch 40 (33762) - http://www.bohemiancoding.com/sketch -->
    <title>Mail</title>
    <desc>Created with Sketch.</desc>
    <defs></defs>
    <g id="Dashboard_CASA" stroke="none" stroke-width="1" fill="none" fill-rule="evenodd">
        <g id="Mail" fill="#FFC83D">
            <path d="M17.8047168,0.123633881 C17.6805121,0.050827262 17.5140923,0 17.2844721,0 L1.30451608,0 C1.07465186,0 0.907744077,0.050827262 0.784027344,0.123633881 C0.323322823,0.350021253 0,0.866810873 0,1.46849576 L0,11.2015043 C0,11.802365 0.323322823,12.3188799 0.783295292,12.5463662 C0.907012025,12.6188981 1.07416382,12.6700001 1.30427207,12.6700001 L17.2842281,12.6700001 C17.5136043,12.6700001 17.680268,12.6186233 17.8044728,12.5469157 C18.2654213,12.3199788 18.5885001,11.8031892 18.5885001,11.2017791 L18.5885001,1.46822102 C18.5887442,0.866810873 18.2656654,0.350021253 17.8047168,0.123633881 L17.8047168,0.123633881 Z M12.5193037,6.3347253 L17.6861244,1.58004099 L17.6861244,11.0894096 L12.5193037,6.3347253 L12.5193037,6.3347253 Z M16.872327,1.0162705 L9.66893852,7.64524443 C9.48080124,7.81805712 9.1076989,7.81805712 8.91956162,7.64524443 L1.71666118,1.0162705 L16.872327,1.0162705 L16.872327,1.0162705 Z M0.902619715,11.0902338 L0.902619715,1.58004099 L6.06968445,6.33582426 L0.902619715,11.0902338 L0.902619715,11.0902338 Z M1.71690519,11.6531801 L6.7829468,6.99190806 L8.34856132,8.43238014 C8.60453539,8.66783399 8.94030309,8.79833642 9.29437208,8.79833642 C9.64868509,8.79833642 9.98445279,8.66783399 10.2401828,8.43238014 L11.8065294,6.99108383 L16.872327,11.6531801 L1.71690519,11.6531801 L1.71690519,11.6531801 Z" id="Shape"></path>
        </g>
    </g>
</svg>