<?xml version="1.0" encoding="UTF-8" standalone="no"?>
<svg width="21px" height="24px" viewBox="0 0 21 24" version="1.1" xmlns="http://www.w3.org/2000/svg" xmlns:xlink="http://www.w3.org/1999/xlink">
    <!-- Generator: Sketch 39.1 (31720) - http://www.bohemiancoding.com/sketch -->
    <title>money-protection</title>
    <desc>Created with Sketch.</desc>
    <defs></defs>
    <g id="Page-1" stroke="none" stroke-width="1" fill="none" fill-rule="evenodd">
        <g id="0101_Artboard-1-Copy-17" transform="translate(-537.000000, -1019.000000)" fill="#373737">
            <g id="Group-13" transform="translate(517.000000, 999.000000)">
                <g id="money-protection" transform="translate(20.000000, 20.000000)">
                    <path d="M20.7299789,2.22979792 C20.6902267,1.97424107 20.4872399,1.77124985 20.2244683,1.72444069 L10.6133491,0.0102253038 C10.5382268,-0.00340843461 10.4612264,-0.00340843461 10.3865736,0.0102253038 L0.775610935,1.72444069 C0.512682792,1.77124985 0.309696005,1.97424107 0.270100279,2.22979792 C0.229096009,2.49308056 -0.711811132,8.73006145 1.17845441,14.1255377 C3.09203918,19.585547 9.88043692,23.7342936 10.1684058,23.908351 C10.269821,23.9698543 10.3853216,24 10.4997266,24 C10.6146012,24 10.7301017,23.9698543 10.8310474,23.908351 C11.1190163,23.7342936 17.9080401,19.585547 19.8214683,14.1255377 C21.7117339,8.73006145 20.7709832,2.49308056 20.7299789,2.22979792 L20.7299789,2.22979792 Z M18.6055822,13.635632 C16.9469438,18.2761021 11.0756644,21.7940611 10.8261957,21.9413055 C10.7258761,22.0011425 10.6127231,22.0306822 10.4997266,22.0306822 C10.3865736,22.0306822 10.2735771,22.0005365 10.1732575,21.9413055 C9.92441479,21.7940611 4.05297894,18.2761021 2.39449707,13.635632 C0.757925888,9.05787711 1.57159459,3.76889551 1.60712119,3.54590814 C1.64796895,3.2901998 1.85158176,3.08781453 2.1145099,3.04176279 L10.3884517,1.59492017 C10.4624785,1.58189238 10.5376008,1.58189238 10.6110016,1.59492017 L18.8849433,3.04176279 C19.1484975,3.08781453 19.3519538,3.2901998 19.392332,3.54590814 C19.4278586,3.76889551 20.2415273,9.05787711 18.6055822,13.635632 L18.6055822,13.635632 Z M9.07772356,7.043568 L9.87370722,7.043568 L9.87370722,9.92134722 L9.07772356,9.92134722 C8.25857719,9.92134722 7.59155353,9.27571396 7.59155353,8.48223038 C7.59155353,7.68859531 8.25857719,7.043568 9.07772356,7.043568 L9.07772356,7.043568 Z M11.125746,11.1332351 L11.9217296,11.1332351 C12.741502,11.1332351 13.4078997,11.7787169 13.4078997,12.571746 C13.4078997,13.3652295 12.741502,14.0108628 11.9217296,14.0108628 L11.125746,14.0108628 L11.125746,11.1332351 Z M18.2099379,4.15533625 L10.4997266,2.80680803 L2.7893588,4.15533625 C2.63723609,5.48205049 2.30028116,9.66624482 3.57736071,13.2391932 C4.87713347,16.8754627 9.2630253,19.9051824 10.4997266,20.7027561 C11.7370539,19.9051824 16.1229458,16.8754627 17.422562,13.2391932 C18.6990155,9.66624482 18.3628431,5.48205049 18.2099379,4.15533625 L18.2099379,4.15533625 Z M11.9217296,9.92134722 C13.4316884,9.92134722 14.6605645,11.1100577 14.6605645,12.571746 C14.6605645,14.0332827 13.4316884,15.2227507 11.9217296,15.2227507 L11.126372,15.2227507 L11.126372,16.0268383 C11.126372,16.3617738 10.8457588,16.6327822 10.5003526,16.6327822 C10.1543204,16.6327822 9.87433324,16.3617738 9.87433324,16.0268383 L9.87433324,15.2227507 L6.96553415,15.2227507 C6.62012795,15.2227507 6.33951476,14.9511363 6.33951476,14.6168067 C6.33951476,14.2818712 6.62012795,14.0108628 6.96553415,14.0108628 L9.87370722,14.0108628 L9.87370722,11.1332351 L9.07772356,11.1332351 C7.56823431,11.1332351 6.33951476,9.94437308 6.33951476,8.48268484 C6.33951476,7.02054213 7.56823431,5.83168014 9.07772356,5.83168014 L9.87370722,5.83168014 L9.87370722,5.24830762 C9.87370722,4.91337211 10.1543204,4.64236369 10.4997266,4.64236369 C10.8457588,4.64236369 11.125746,4.91337211 11.125746,5.24830762 L11.125746,5.83168014 L14.0345451,5.83168014 C14.3799513,5.83168014 14.6605645,6.1032945 14.6605645,6.43762407 C14.6605645,6.77255958 14.3799513,7.043568 14.0345451,7.043568 L11.125746,7.043568 L11.125746,9.92134722 L11.9217296,9.92134722 Z" id="Fill-1"></path>
                </g>
            </g>
        </g>
    </g>
</svg>