<?xml version="1.0" encoding="UTF-8" standalone="no"?>
<svg width="22px" height="28px" viewBox="0 0 22 28" version="1.1" xmlns="http://www.w3.org/2000/svg" xmlns:xlink="http://www.w3.org/1999/xlink">
    <!-- Generator: Sketch 39.1 (31720) - http://www.bohemiancoding.com/sketch -->
    <title>nature</title>
    <desc>Created with Sketch.</desc>
    <defs></defs>
    <g id="Login" stroke="none" stroke-width="1" fill="none" fill-rule="evenodd">
        <g id="101_Standard_Login_01" transform="translate(-728.000000, -616.000000)" fill="#000000">
            <g id="PRODUCTS" transform="translate(126.000000, 606.000000)">
                <g id="nature" transform="translate(602.000000, 10.000000)">
                    <g id="Capa_1">
                        <path d="M21.1705316,26.3950268 L19.4500947,26.3950268 C17.4372158,24.6742743 14.4784059,23.6584382 11.2477651,23.573417 L11.2477651,20.9661573 L13.2809605,18.9318927 C13.6529023,19.0010645 14.029673,19.0354737 14.4071504,19.0354737 C16.1464317,19.0354737 17.8941342,18.3158863 19.1942227,17.0151141 C20.8380453,15.3704271 21.5530145,13.010277 21.0602329,10.8557571 C21.0224262,10.6904871 20.8934008,10.5613938 20.7282177,10.5235673 C18.5748301,10.0305265 16.2159206,10.7459306 14.572098,12.3905587 C12.9898142,13.9736156 12.2686617,16.2195201 12.6563268,18.3069894 L11.2477651,19.7162918 L11.2477651,11.5681562 L12.5742947,10.2409291 C12.8306377,10.2847065 13.0899252,10.3062711 13.3494482,10.3062711 C14.6451201,10.3062711 15.9462686,9.7709259 16.9137531,8.80287375 C18.137345,7.57869727 18.6692878,5.82064858 18.3019982,4.21484863 C18.2641916,4.0495197 18.1351662,3.92048536 17.969983,3.88265885 C16.3650271,3.51529396 14.6079613,4.04739858 13.3843693,5.27163398 C12.2220217,6.43459279 11.6844257,8.07910305 11.9483065,9.617322 L11.2477651,10.3182318 L11.2477651,9.46360027 C11.2477651,8.09931254 10.7210634,6.81639303 9.76488562,5.84580733 C10.027412,4.30853109 9.48975705,2.66549383 8.32823392,1.50335989 C7.10464197,0.279124499 5.34769395,-0.253039043 3.74256132,0.114384767 C3.57737818,0.152211272 3.44835277,0.281304531 3.41054614,0.446574542 C3.04325656,2.05231558 3.57519929,3.81036427 4.79879124,5.03459966 C5.76639348,6.00271073 7.06736534,6.53799702 8.3630961,6.53799702 C8.62362025,6.53799702 8.88402662,6.5161967 9.14142966,6.47206578 C9.92995099,7.27555495 10.3643738,8.33605225 10.3643738,9.46365919 L10.3643738,15.9453664 L8.9558121,14.5360639 C9.34347721,12.4486536 8.62226581,10.202749 7.04004093,8.6196332 C5.39621834,6.97488726 3.0372499,6.25948318 0.883921223,6.75264182 C0.718738076,6.79046832 0.589712667,6.91956158 0.551906043,7.08483159 C0.0591243776,9.23935155 0.774093569,11.5995016 2.41791615,13.2441886 C3.71812246,14.5450786 5.46558938,15.2645482 7.20498852,15.2645482 C7.58234809,15.2645482 7.95923656,15.2300801 8.33117836,15.1609083 L10.3644327,17.1952319 L10.3644327,23.573358 C7.13379193,23.6583793 4.17498195,24.6742154 2.16210311,26.3949679 L0.441666167,26.3949679 C0.197748665,26.3949679 -2.8658557e-15,26.5928205 -2.8658557e-15,26.8368663 C-2.8658557e-15,27.0809121 0.197748665,27.2787647 0.441666167,27.2787647 L21.1705316,27.2787647 C21.4144491,27.2787647 21.6121978,27.0809121 21.6121978,26.8368663 C21.6121978,26.5928205 21.4144491,26.3950268 21.1705316,26.3950268 L21.1705316,26.3950268 Z M15.1967317,13.015462 C16.5568279,11.6547094 18.4714213,11.0230304 20.2545749,11.3296489 C20.5611501,13.1139169 19.9297441,15.0293404 18.5696479,16.3901519 C17.3509437,17.609438 15.6872167,18.2428846 14.071543,18.1408945 L18.1948794,14.0153897 C18.3673648,13.8428137 18.3673648,13.5630036 18.1948794,13.3904864 C18.0223941,13.2179104 17.742731,13.2179104 17.5703046,13.3904864 L13.4469681,17.5159912 C13.3449727,15.89935 13.9780864,14.2347481 15.1967317,13.015462 L15.1967317,13.015462 Z M14.009003,5.89665511 C14.9481031,4.95706122 16.2602049,4.50915298 17.4935136,4.69168649 C17.6758333,5.92552581 17.2283372,7.23837657 16.2891782,8.17802938 C15.4981247,8.96949891 14.4424837,9.41192762 13.3920837,9.42270994 L15.9324887,6.88096912 C16.104974,6.70839306 16.104974,6.42858297 15.9324887,6.25606583 C15.7600033,6.08348976 15.4803403,6.08348976 15.3079138,6.25606583 L12.7648,8.80051696 C12.7742222,7.74791491 13.2165951,6.6894798 14.009003,5.89665511 L14.009003,5.89665511 Z M4.21914856,0.923353482 C5.45245717,0.741055652 6.76450013,1.1886693 7.70365907,2.12832211 C8.49471262,2.91979164 8.93690878,3.97610564 8.94768544,5.02694009 L6.40728053,2.48519927 C6.23479517,2.31262321 5.95513216,2.31262321 5.78270568,2.48519927 C5.61022032,2.65777534 5.61022032,2.93758542 5.78270568,3.11010257 L8.32581947,5.65455369 C7.27382955,5.64518545 6.21589186,5.20252106 5.42348387,4.40969637 C4.48432493,3.47004356 4.03682877,2.1571928 4.21914856,0.923353482 L4.21914856,0.923353482 Z M3.04254989,12.6192853 C1.68245365,11.2584738 1.05110659,9.34305038 1.35762291,7.55878238 C3.14083534,7.25204596 5.05536984,7.88384286 6.41546608,9.24459541 C7.63411137,10.4638815 8.26716621,12.1284834 8.16522966,13.7450657 L4.04189321,9.61956096 C3.86940785,9.44698489 3.58974483,9.44698489 3.41731836,9.61956096 C3.244833,9.79213702 3.244833,10.0719471 3.41731836,10.2444642 L7.54065481,14.369969 C5.92503997,14.4720181 4.26125407,13.8385714 3.04254989,12.6192853 L3.04254989,12.6192853 Z M10.8060989,24.4506737 C13.4955514,24.4506737 16.0792396,25.163721 17.9733986,26.3950268 L3.63879922,26.3950268 C5.53295819,25.1636621 8.11664638,24.4506737 10.8060989,24.4506737 L10.8060989,24.4506737 Z" id="Shape"></path>
                    </g>
                </g>
            </g>
        </g>
    </g>
</svg>