<?xml version="1.0" encoding="UTF-8" standalone="no"?>
<svg width="21px" height="29px" viewBox="0 0 21 29" version="1.1" xmlns="http://www.w3.org/2000/svg" xmlns:xlink="http://www.w3.org/1999/xlink">
    <!-- Generator: Sketch 39.1 (31720) - http://www.bohemiancoding.com/sketch -->
    <title>open-door</title>
    <desc>Created with Sketch.</desc>
    <defs></defs>
    <g id="Login" stroke="none" stroke-width="1" fill="none" fill-rule="evenodd">
        <g id="101_Standard_Login_01" transform="translate(-173.000000, -618.000000)" fill="#000002">
            <g id="PRODUCTS" transform="translate(126.000000, 606.000000)">
                <g id="open-door" transform="translate(47.000000, 12.000000)">
                    <path d="M0.746511755,28.7947791 C0.51331658,28.7947791 0.324362634,28.6767981 0.324362634,28.3393958 L0.348256109,0.527301514 C0.348256109,0.294106338 0.537210056,0.105152391 0.770405232,0.105152391 L20.404286,0.105152475 C20.6374811,0.105152475 20.8264351,0.294106422 20.8264351,0.527301597 L20.8264355,28.220002 C20.8264355,28.4531972 20.6374816,28.6421511 20.4042864,28.6421511 L20.0214895,28.6421511 C19.7882943,28.6421511 19.5993403,28.4531971 19.5993403,28.2200019 L19.5993399,1.38968421 L9.79011404,1.38968421 L17.2969991,2.24248295 C17.5131395,2.2635904 17.6781154,2.44545224 17.6781154,2.66260575 L17.6781154,25.5150575 C17.6781154,25.7288338 17.518543,25.9088382 17.3062864,25.9341672 L1.66540527,27.8643801 C1.66540527,27.8643801 1.64151181,28.25927 1.64151181,28.3433154 C1.64151181,28.6945117 1.43729208,28.7986987 1.25679828,28.7986987 C0.901930926,28.7986987 0.746511755,28.7947791 0.746511755,28.7947791 Z M1.61553955,26.9143061 L16.859317,25.1038813 L16.859317,3.00910278 L1.61553955,1.38120746 L1.61553955,26.9143061 Z M14.3482561,13.8843004 C14.3482561,14.3994788 14.6362152,14.7586709 14.8947125,14.7586709 C15.1532098,14.7586709 15.4411689,14.3994788 15.4411689,13.8843004 C15.4411689,13.369122 15.1532098,13.0099298 14.8947125,13.0099298 C14.6362152,13.0099298 14.3482561,13.369122 14.3482561,13.8843004 Z" id="Shape"></path>
                </g>
            </g>
        </g>
    </g>
</svg>