<?xml version="1.0" encoding="UTF-8" standalone="no"?>
<svg width="21px" height="26px" viewBox="0 0 21 26" version="1.1" xmlns="http://www.w3.org/2000/svg" xmlns:xlink="http://www.w3.org/1999/xlink">
    <!-- Generator: Sketch 39.1 (31720) - http://www.bohemiancoding.com/sketch -->
    <title>Fill 1</title>
    <desc>Created with Sketch.</desc>
    <defs></defs>
    <g id="Page-1" stroke="none" stroke-width="1" fill="none" fill-rule="evenodd">
        <g id="0101_Artboard-1-Copy-17" transform="translate(-124.000000, -1019.000000)" fill="#373737">
            <g id="Group-13" transform="translate(104.000000, 999.000000)">
                <path d="M36.0803076,20 L22.1310428,20 C20.9560016,20 20,20.9560016 20,22.130555 L20,41.4738542 C20,42.6484076 20.9560016,43.6042465 22.1310428,43.6042465 L29.7523869,43.6042465 C29.0560782,42.5345785 28.6495458,41.2603433 28.6495458,39.8914675 C28.6495458,36.1279532 31.7113852,33.0656259 35.47555,33.0656259 C36.4479755,33.0656259 37.372918,33.2719818 38.2113504,33.6398123 L38.2113504,22.130555 C38.2113504,20.9560016 37.2553488,20 36.0803076,20 L36.0803076,20 Z M29.1349455,33.6354217 L22.8623133,33.6354217 C22.502776,33.6354217 22.2118615,33.3438567 22.2118615,32.9849699 C22.2118615,32.6254327 22.502776,32.3345181 22.8623133,32.3345181 L29.1349455,32.3345181 C29.4938323,32.3345181 29.7853974,32.6254327 29.7853974,32.9849699 C29.7853974,33.3438567 29.4938323,33.6354217 29.1349455,33.6354217 L29.1349455,33.6354217 Z M34.3436012,30.2719353 L22.8623133,30.2719353 C22.502776,30.2719353 22.2118615,29.9810207 22.2118615,29.6214835 C22.2118615,29.2625967 22.502776,28.9710317 22.8623133,28.9710317 L34.3436012,28.9710317 C34.702488,28.9710317 34.994053,29.2625967 34.994053,29.6214835 C34.994053,29.9810207 34.702488,30.2719353 34.3436012,30.2719353 L34.3436012,30.2719353 Z M22.2118615,26.2586475 C22.2118615,25.8992729 22.502776,25.6081957 22.8623133,25.6081957 L32.0327084,25.6081957 C32.3915952,25.6081957 32.6831603,25.8992729 32.6831603,26.2586475 C32.6831603,26.6176969 32.3915952,26.9090994 32.0327084,26.9090994 L22.8623133,26.9090994 C22.502776,26.9090994 22.2118615,26.6176969 22.2118615,26.2586475 L22.2118615,26.2586475 Z M34.3436012,23.5457755 L22.8623133,23.5457755 C22.502776,23.5457755 22.2118615,23.254861 22.2118615,22.8953237 C22.2118615,22.5364369 22.502776,22.2448719 22.8623133,22.2448719 L34.3436012,22.2448719 C34.702488,22.2448719 34.994053,22.5364369 34.994053,22.8953237 C34.994053,23.254861 34.702488,23.5457755 34.3436012,23.5457755 L34.3436012,23.5457755 Z M34.3982391,37.6531001 L34.7958278,37.6531001 L34.7958278,39.1655632 L34.3982391,39.1655632 C33.9814621,39.1655632 33.6424141,38.8263526 33.6424141,38.4089251 C33.6424141,37.9923107 33.9814621,37.6531001 34.3982391,37.6531001 L34.3982391,37.6531001 Z M35.47555,34.3671801 C32.4291588,34.3671801 29.9504495,36.8450763 29.9504495,39.8914675 C29.9504495,42.9380212 32.4291588,45.4165679 35.47555,45.4165679 C38.5212907,45.4165679 41,42.9380212 41,39.8914675 C41,36.8450763 38.5212907,34.3671801 35.47555,34.3671801 L35.47555,34.3671801 Z M36.291867,39.1655632 C37.426255,39.1655632 38.3485957,40.0877413 38.3485957,41.2222919 C38.3485957,42.3561921 37.426255,43.2790206 36.291867,43.2790206 L36.0967315,43.2790206 L36.0967315,43.5992055 C36.0967315,43.9580923 35.8058169,44.2496574 35.4462796,44.2496574 C35.0867424,44.2496574 34.7958278,43.9580923 34.7958278,43.5992055 L34.7958278,43.2790206 L32.9919623,43.2790206 C32.6330755,43.2790206 32.3415104,42.988106 32.3415104,42.6285688 C32.3415104,42.269682 32.6330755,41.9781169 32.9919623,41.9781169 L34.7958278,41.9781169 L34.7958278,40.4664669 L34.3982391,40.4664669 C33.264339,40.4664669 32.3415104,39.5434757 32.3415104,38.4095756 C32.3415104,37.2745371 33.264339,36.3521964 34.3982391,36.3521964 L34.7958278,36.3521964 L34.7958278,36.1845425 C34.7958278,35.8250052 35.0867424,35.5340906 35.4462796,35.5340906 C35.8058169,35.5340906 36.0967315,35.8250052 36.0967315,36.1845425 L36.0967315,36.3521964 L37.6981439,36.3521964 C38.0576811,36.3521964 38.3485957,36.643111 38.3485957,37.0026483 C38.3485957,37.3615351 38.0576811,37.6531001 37.6981439,37.6531001 L36.0967315,37.6531001 L36.0967315,39.1655632 L36.291867,39.1655632 Z M36.0967315,41.9781169 L36.0967315,40.4664669 L36.291867,40.4664669 C36.7084814,40.4664669 37.0476921,40.8050271 37.0476921,41.2222919 C37.0476921,41.6390689 36.7091319,41.9781169 36.291867,41.9781169 L36.0967315,41.9781169 Z" id="Fill-1"></path>
            </g>
        </g>
    </g>
</svg>