<?xml version="1.0" encoding="UTF-8" standalone="no"?>
<svg width="16px" height="17px" viewBox="0 0 16 17" version="1.1" xmlns="http://www.w3.org/2000/svg" xmlns:xlink="http://www.w3.org/1999/xlink">
    <!-- Generator: Sketch 40.3 (33839) - http://www.bohemiancoding.com/sketch -->
    <title>Cog</title>
    <desc>Created with Sketch.</desc>
    <defs></defs>
    <g id="Page-1" stroke="none" stroke-width="1" fill="none" fill-rule="evenodd">
        <g id="Artboard" transform="translate(-106.000000, -116.000000)" fill="#373737">
            <path d="M122,123.845437 C121.960759,123.443761 121.877372,123.053531 121.784174,122.670385 L119.503287,122.354822 C119.305992,121.879569 119.04275,121.438652 118.740811,121.034251 L119.610655,118.896703 C119.326702,118.618745 119.016589,118.363678 118.69067,118.130957 L116.754232,119.345795 C116.300235,119.107078 115.811902,118.925588 115.294683,118.8095 L114.598699,116.641976 C114.399768,116.627261 114.201383,116.610911 113.998637,116.610911 C113.795892,116.610911 113.599142,116.626171 113.399666,116.641976 L112.706952,118.789335 C112.179923,118.902153 111.680144,119.085278 111.215247,119.326719 L109.308785,118.130412 C108.983956,118.363678 108.675478,118.618745 108.38989,118.896703 L109.235208,120.973754 C108.906019,121.396141 108.630242,121.861583 108.423136,122.364632 L106.215826,122.669295 C106.118268,123.052441 106.040331,123.442671 106,123.845437 L107.981129,124.892956 C108.003474,125.445601 108.095037,125.980805 108.256906,126.483309 L106.763021,128.135249 C106.936335,128.496049 107.130361,128.846493 107.354362,129.168597 L109.554587,128.701519 C109.914841,129.093385 110.326328,129.438379 110.77978,129.722332 L110.696393,131.973788 C111.057738,132.136748 111.433253,132.273001 111.820213,132.381459 L113.212726,130.592176 C113.459618,130.625422 113.70978,130.646677 113.964302,130.646677 C114.240624,130.646677 114.510951,130.622151 114.776919,130.589996 L116.175972,132.389089 C116.563477,132.286627 116.936812,132.150373 117.299792,131.982508 L117.21477,129.691811 C117.646967,129.409493 118.039377,129.076489 118.384372,128.704244 L120.644003,129.192578 C120.868004,128.863389 121.063665,128.522754 121.235344,128.159229 L119.692407,126.446793 C119.837381,125.9541 119.920223,125.449416 119.944749,124.931107 L122,123.845437 Z M114.000336,127.188508 C115.485158,127.188508 116.688844,125.984822 116.688844,124.5 C116.688844,123.015178 115.485158,121.811492 114.000336,121.811492 C112.515514,121.811492 111.311828,123.015178 111.311828,124.5 C111.311828,125.984822 112.515514,127.188508 114.000336,127.188508 Z" id="Cog"></path>
        </g>
    </g>
</svg>