<?xml version="1.0" encoding="UTF-8" standalone="no"?>
<svg width="40px" height="40px" viewBox="0 0 40 40" version="1.1" xmlns="http://www.w3.org/2000/svg" xmlns:xlink="http://www.w3.org/1999/xlink">
    <!-- Generator: Sketch 39.1 (31720) - http://www.bohemiancoding.com/sketch -->
    <title>Group 3</title>
    <desc>Created with Sketch.</desc>
    <defs></defs>
    <g id="Page-1" stroke="none" stroke-width="1" fill="none" fill-rule="evenodd">
        <g id="415_StyleGuide-Copy-21" transform="translate(-117.000000, -341.000000)">
            <g id="Group-3" transform="translate(117.000000, 341.000000)">
                <path d="M20,40 C31.045695,40 40,31.045695 40,20 C40,8.954305 31.045695,0 20,0 C8.954305,0 0,8.954305 0,20 C0,31.045695 8.954305,40 20,40 Z" id="Oval-104" fill="#F5A623"></path>
                <path d="M29.8878744,22.3545746 L29.6890464,20.9276083 C29.6691635,20.7849117 29.5896323,20.6626003 29.4504527,20.6218299 L26.110141,19.0929374 L26.110141,17.3194222 C26.110141,17.0951846 25.9311957,16.9117175 25.7124848,16.9117175 L23.9230321,16.9117175 C23.7043213,16.9117175 23.525376,17.0951846 23.525376,17.3194222 L23.525376,17.8902087 L22.1335795,17.2582665 L22.1335795,13.1404494 C22.1335795,11.9581059 21.1990875,11 20.0458847,11 L19.8470566,11 C18.6938537,11 17.7593618,11.9581059 17.7593618,13.1404494 L17.7593618,17.2582665 L16.3675653,17.8902087 L16.3675653,17.3194222 C16.3675653,17.0951846 16.18862,16.9117175 15.9699091,16.9117175 L14.1804564,16.9117175 C13.9617455,16.9117175 13.7828003,17.0951846 13.7828003,17.3194222 L13.7828003,19.0929374 L10.4424886,20.6218299 C10.3231917,20.6829856 10.2237777,20.7849117 10.2038949,20.9276083 L10.0050668,22.3545746 C9.98518401,22.476886 10.0249496,22.5991974 10.1044809,22.6807384 C10.1840121,22.7622793 10.2834261,22.823435 10.402723,22.823435 L17.7593618,22.823435 L17.7593618,25.6162119 L14.8962375,26.941252 C14.7769406,27.0024077 14.6775266,27.1247191 14.6576438,27.2470305 L14.5781126,27.8585875 C14.5582298,27.9808989 14.5979954,28.1032103 14.6775266,28.1847512 C14.7570578,28.2662921 14.8564719,28.3274478 14.9757687,28.3274478 L18.1570179,28.3274478 L18.1967836,28.3274478 C18.5745569,28.8166934 19.1710411,29.1428571 19.8470566,29.1428571 L20.0458847,29.1428571 C20.7219001,29.1428571 21.2985015,28.8166934 21.6961577,28.3274478 L21.7359233,28.3274478 L24.9171725,28.3274478 C25.0364694,28.3274478 25.1358834,28.2662921 25.2154146,28.1847512 C25.2949459,28.1032103 25.3347115,27.9808989 25.3148287,27.8585875 L25.2352974,27.2674157 C25.2154146,27.1247191 25.1358834,27.0024077 24.9967038,26.9616372 L22.1335795,25.6162119 L22.1335795,22.823435 L29.4902183,22.823435 C29.6095151,22.823435 29.7089292,22.7622793 29.7884604,22.6807384 C29.8679916,22.5991974 29.9077572,22.476886 29.8878744,22.3545746 L29.8878744,22.3545746 Z M17.7593618,27.0024077 L17.7593618,27.5120385 L15.6120186,27.5120385 L17.7593618,26.5131621 L17.7593618,27.0024077 L17.7593618,27.0024077 Z M14.5781126,17.7271268 L15.5722529,17.7271268 L15.5722529,18.2571429 L14.5781126,18.705618 L14.5781126,17.7271268 L14.5781126,17.7271268 Z M17.7593618,22.0080257 L10.8600275,22.0080257 L10.9594416,21.2741573 L17.7593618,18.1552167 L17.7593618,22.0080257 L17.7593618,22.0080257 Z M21.3382672,13.4462279 L21.3382672,13.5481541 L21.3382672,15.2197432 L21.3382672,16.9117175 L21.3382672,25.8812199 L21.3382672,26.9004815 C21.3382672,27.6343499 20.7616657,28.3274478 20.0458847,28.3274478 L19.8470566,28.3274478 C19.1312755,28.3274478 18.5546741,27.6343499 18.5546741,26.9004815 L18.5546741,25.8812199 L18.5546741,16.9117175 L18.5546741,15.2197432 L18.5546741,13.5481541 L18.5546741,13.4462279 L18.5546741,13.1404494 C18.5546741,12.4065811 19.1312755,11.8154093 19.8470566,11.8154093 L20.0458847,11.8154093 C20.7616657,11.8154093 21.3382672,12.4065811 21.3382672,13.1404494 L21.3382672,13.4462279 L21.3382672,13.4462279 Z M24.2809227,27.5120385 L22.1335795,27.5120385 L22.1335795,27.0024077 L22.1335795,26.5131621 L24.2809227,27.5120385 L24.2809227,27.5120385 Z M24.3206883,17.7271268 L25.3148287,17.7271268 L25.3148287,18.7260032 L24.3206883,18.2775281 L24.3206883,17.7271268 L24.3206883,17.7271268 Z M22.1335795,22.0080257 L22.1335795,18.1552167 L28.9334997,21.2741573 L29.0329137,22.0080257 L22.1335795,22.0080257 L22.1335795,22.0080257 Z" id="Shape" stroke="#FFFFFF" stroke-width="0.3" fill="#FFFFFF"></path>
            </g>
        </g>
    </g>
</svg>