<?xml version="1.0" encoding="UTF-8" standalone="no"?>
<svg width="32px" height="27px" viewBox="0 0 32 27" version="1.1" xmlns="http://www.w3.org/2000/svg" xmlns:xlink="http://www.w3.org/1999/xlink">
    <!-- Generator: Sketch 39.1 (31720) - http://www.bohemiancoding.com/sketch -->
    <title>two-credit-cards (1)</title>
    <desc>Created with Sketch.</desc>
    <defs></defs>
    <g id="Login" stroke="none" stroke-width="1" fill="none" fill-rule="evenodd">
        <g id="101_Standard_Login_01" transform="translate(-361.000000, -617.000000)" stroke="#000000" stroke-width="0.2" fill="#000000">
            <g id="PRODUCTS" transform="translate(126.000000, 606.000000)">
                <g id="two-credit-cards-(1)" transform="translate(235.000000, 12.000000)">
                    <path d="M4.65628326,25.6964448 C4.30178996,25.6964448 3.95578389,25.5900513 3.6570638,25.3851454 C3.26634823,25.1171915 3.00324418,24.7131389 2.91640166,24.2475538 L0.879770215,13.3291905 C0.70032598,12.3678605 1.33671647,11.4397215 2.29819808,11.2602773 L8.71620908,10.0632751 L8.71620908,1.71760263 C8.71620908,0.770518996 9.48672807,-3.55271368e-15 10.4338117,-3.55271368e-15 L30.0218777,-3.55271368e-15 C30.9689614,-3.55271368e-15 31.7394803,0.770518996 31.7394803,1.71760263 L31.7394803,12.9362016 C31.7394803,13.8834368 30.9689614,14.6539558 30.0218777,14.6539558 L24.547313,14.6539558 L25.5492605,20.0254613 C25.636103,20.4911979 25.5365296,20.9629968 25.2685757,21.3537124 C25.0006218,21.7445795 24.5965692,22.007532 24.1308326,22.0945261 L4.98531488,25.6659817 C4.87558715,25.6862904 4.76540476,25.6964448 4.65628326,25.6964448 L4.65628326,25.6964448 Z M8.71620908,10.8340972 L2.43717643,12.0053346 C1.886416,12.1080907 1.5219199,12.6397549 1.62467597,13.1902122 L3.66130741,24.1085755 C3.71116988,24.3753169 3.86181816,24.6065938 4.08566878,24.7601217 C4.3095194,24.9136496 4.5795951,24.9710899 4.84648809,24.9209244 L23.9920058,21.3496204 C24.2587472,21.2999094 24.4901757,21.1492612 24.6437036,20.9254105 C24.7972315,20.7015599 24.8542172,20.4313327 24.8045063,20.1644397 L23.7766424,14.6541073 L10.4338117,14.6541073 C9.48657652,14.6541073 8.71620908,13.8835883 8.71620908,12.9363531 L8.71620908,10.8340972 L8.71620908,10.8340972 Z M10.489888,13.8963192 L30.0218777,13.8963192 C30.551117,13.8963192 30.9816922,13.4655924 30.9816922,12.9363531 L30.9816922,6.99529401 L9.47399723,6.99529401 L9.47399723,12.8802768 C9.47399723,13.4404338 9.92973103,13.8963192 10.489888,13.8963192 L10.489888,13.8963192 Z M9.47399723,6.2373543 L30.9816922,6.2373543 L30.9816922,3.44232847 L9.47399723,3.44232847 L9.47399723,6.2373543 L9.47399723,6.2373543 Z M9.47399723,2.68454032 L30.9816922,2.68454032 L30.9816922,1.71760263 C30.9816922,1.18836338 30.551117,0.757788155 30.0218777,0.757788155 L10.4338117,0.757788155 C9.90457246,0.757788155 9.47399723,1.18836338 9.47399723,1.71760263 L9.47399723,2.68454032 L9.47399723,2.68454032 Z M4.52579214,21.2873302 C4.34695414,21.2873302 4.18781862,21.1601733 4.15371816,20.9778495 C4.11537408,20.7723373 4.25101816,20.5744031 4.45668186,20.5359074 L7.99994771,19.8749646 C8.20545986,19.8376814 8.40354569,19.9722646 8.44188977,20.1780799 C8.48023385,20.383592 8.34458977,20.5815263 8.13892606,20.6200219 L4.59566021,21.2809647 C4.57232033,21.2852084 4.5488289,21.2873302 4.52579214,21.2873302 L4.52579214,21.2873302 Z M9.4118586,20.3758626 C9.2330206,20.3758626 9.07388509,20.2487057 9.03978462,20.0663819 C9.00144054,19.8608697 9.13708462,19.6629355 9.34274832,19.6244398 L12.8860142,18.963497 C13.0912232,18.9262138 13.2896121,19.060797 13.3279562,19.2666123 C13.3663003,19.4721244 13.2306562,19.6700587 13.0249925,19.7085543 L9.48172667,20.3694972 C9.45823524,20.3738923 9.43489536,20.3758626 9.4118586,20.3758626 L9.4118586,20.3758626 Z M14.2977735,19.4645465 C14.1189355,19.4645465 13.9598,19.3373897 13.9256995,19.1550659 C13.8873554,18.9495537 14.0229995,18.7516194 14.2286632,18.7131238 L17.7719291,18.052181 C17.9769866,18.0148978 18.1755271,18.149481 18.2138711,18.3552962 C18.2522152,18.5608084 18.1165711,18.7587427 17.9109074,18.7972383 L14.3676416,19.4581811 C14.3443017,19.4624247 14.3208103,19.4645465 14.2977735,19.4645465 L14.2977735,19.4645465 Z M19.1836884,18.5530789 C19.0048504,18.5530789 18.8457149,18.4259221 18.8116144,18.2435983 C18.7732704,18.0380861 18.9089144,17.8401518 19.1145781,17.8016562 L22.657844,17.1407134 C22.8633561,17.1034302 23.061442,17.2380134 23.099786,17.4438286 C23.1381301,17.6493408 23.002486,17.8472751 22.7968223,17.8857707 L19.2535565,18.5467135 C19.2302166,18.5509571 19.2068767,18.5530789 19.1836884,18.5530789 L19.1836884,18.5530789 Z M4.57247189,18.4154646 C4.06278358,18.4154646 3.60795913,18.0523325 3.51126536,17.5335508 L3.23270243,16.0397988 C3.12358094,15.4546347 3.51081069,14.8896279 4.09612626,14.7802033 L6.40480365,14.3496281 C6.98951299,14.2400519 7.55497451,14.6277363 7.66439912,15.2130519 L7.94296205,16.7068039 L7.94296205,16.7068039 C8.05208354,17.2919679 7.66485379,17.8569747 7.07938666,17.9663994 L4.77070927,18.3971261 C4.70417547,18.4094023 4.63794479,18.4154646 4.57247189,18.4154646 L4.57247189,18.4154646 Z M6.60304103,15.0890777 C6.5834901,15.0890777 6.56363605,15.0908964 6.543782,15.0946854 L4.23510461,15.5252606 C4.06066177,15.5578455 3.9450233,15.726226 3.97760819,15.900972 L4.25617112,17.394724 C4.28875601,17.5690152 4.45759121,17.6846537 4.63188248,17.6520688 L6.94040832,17.221342 C7.11500271,17.1887572 7.23064118,17.0203766 7.19805629,16.8456307 L6.91949336,15.3520302 C6.89054586,15.1972899 6.75490178,15.0890777 6.60304103,15.0890777 L6.60304103,15.0890777 Z" id="Shape"></path>
                </g>
            </g>
        </g>
    </g>
</svg>