<?xml version="1.0" encoding="UTF-8" standalone="no"?>
<svg width="24px" height="24px" viewBox="0 0 24 24" version="1.1" xmlns="http://www.w3.org/2000/svg" xmlns:xlink="http://www.w3.org/1999/xlink">
    <!-- Generator: Sketch 39.1 (31720) - http://www.bohemiancoding.com/sketch -->
    <title>weather</title>
    <desc>Created with Sketch.</desc>
    <defs>
        <polygon id="path-1" points="0.00602040816 0.00802721088 0.00602040816 39.333534 39.3314789 39.333534 39.3314789 0.00802721088 0.00602040816 0.00802721088"></polygon>
    </defs>
    <g id="Login" stroke="none" stroke-width="1" fill="none" fill-rule="evenodd">
        <g id="101_Standard_Login_01" transform="translate(-908.000000, -618.000000)">
            <g id="PRODUCTS" transform="translate(126.000000, 606.000000)">
                <g id="weather" transform="translate(773.000000, 0.000000)">
                    <mask id="mask-2" fill="white">
                        <use xlink:href="#path-1"></use>
                    </mask>
                    <g id="Clip-2"></g>
                    <path d="M32.4361685,21.7641524 C30.5054429,16.9181873 26.1878457,13.7625676 21.2553701,13.56091 L21.2553701,12.4994912 C21.2553701,12.1969748 21.0536525,12 20.7558189,12 C20.4579853,12 20.2563277,12.2016576 20.2563277,12.4994912 L20.2563277,13.56091 C15.3189292,13.7625676 10.9532441,16.970958 9.02251846,21.8600283 C8.88816013,22.32602 9.38272846,22.6909127 9.77175526,22.4603783 C10.2713065,22.157862 10.7707977,22.0089752 11.3183769,22.0089752 C12.4182782,22.0089752 13.4170204,22.6093252 14.0654585,23.6132304 C14.4017745,24.078982 14.7762729,23.7621773 14.8627833,23.6132304 C15.4774817,22.5565544 16.5581117,22.0089752 17.6098648,22.0089752 C18.6522525,22.0089752 19.6078897,22.5518717 20.2563277,23.4643436 L20.2563277,33.6749764 C20.2563277,34.1264396 19.9057233,34.525072 19.4590029,34.525072 C19.0124625,34.525072 18.6619182,34.1264396 18.6619182,33.6749764 L18.6619182,32.8248808 C18.6619182,32.5223644 18.4599604,32.3253896 18.1623669,32.3253896 C17.8645333,32.3253896 17.6628757,32.5272873 17.6628757,32.8248808 L17.6628757,33.6749764 C17.6628757,34.6789417 18.4599604,35.5290373 19.4590029,35.5290373 C20.4579853,35.5290373 21.2553701,34.6789417 21.2553701,33.6749764 L21.2553701,23.478632 C21.9469133,22.5614773 22.9025504,22.013898 23.9015929,22.013898 C25.0014341,22.013898 26.0004765,22.614248 26.6489145,23.6179732 C26.9753248,24.0935104 27.3932285,23.7715427 27.4990101,23.6179732 C28.2001589,22.614248 29.1942785,22.013898 30.2460917,22.013898 C30.7936709,22.013898 31.2931621,22.1627848 31.7926533,22.4653012 C32.5562385,22.9071588 32.6427489,22.1097739 32.4361685,21.7641524 L32.4361685,21.7641524 Z M30.1933209,21.0148556 C28.9973036,21.0148556 27.8976425,21.5671176 27.0475469,22.518072 C26.1974513,21.5671176 25.1022929,21.0148556 23.9015929,21.0148556 C22.7058157,21.0148556 21.6059745,21.5671176 20.7558189,22.518072 C19.9057233,21.5671176 18.8105648,21.0148556 17.6098648,21.0148556 C16.4140877,21.0148556 15.3142465,21.5671176 14.4641509,22.518072 C13.6139953,21.5671176 12.5190769,21.0148556 11.3183769,21.0148556 C11.0205433,21.0148556 10.7707977,21.0629436 10.4682813,21.1157144 C12.466066,17.1053164 16.4091648,14.5550296 20.7558189,14.5550296 C25.0976101,14.5550296 29.0453917,17.1102392 31.0384936,21.1157144 C30.7409001,21.0629436 30.4911545,21.0148556 30.1933209,21.0148556 L30.1933209,21.0148556 Z" id="Fill-1" fill="#000000" mask="url(#mask-2)"></path>
                </g>
            </g>
        </g>
    </g>
</svg>