<?xml version="1.0" encoding="UTF-8" standalone="no"?>
<svg width="24px" height="23px" viewBox="0 0 24 23" version="1.1" xmlns="http://www.w3.org/2000/svg" xmlns:xlink="http://www.w3.org/1999/xlink">
    <!-- Generator: Sketch 40.3 (33839) - http://www.bohemiancoding.com/sketch -->
    <title>Page 1</title>
    <desc>Created with Sketch.</desc>
    <defs>
        <polygon id="path-1" points="11.5409641 22 0 22 0 0.303672131 23.0819282 0.303672131 23.0819282 22"></polygon>
    </defs>
    <g id="Page-1" stroke="none" stroke-width="1" fill="none" fill-rule="evenodd">
        <g id="0301_Standard_Login_01-Copy-10" transform="translate(-1192.000000, -604.000000)">
            <g id="Group-7" transform="translate(878.000000, 424.000000)">
                <g id="Group-2" transform="translate(314.000000, 180.000000)">
                    <g id="Page-1" transform="translate(0.000000, 0.500000)">
                        <mask id="mask-2" fill="white">
                            <use xlink:href="#path-1"></use>
                        </mask>
                        <g id="Clip-2"></g>
                        <path d="M0.422688525,21.1214423 C0.510688525,21.1679676 0.606262295,21.21918 0.793442623,21.21918 C1.38852459,21.218459 2.91013115,20.7084914 8.04118033,17.9400984 C8.34701639,18.0089836 8.51616393,18.0605574 8.74878689,18.1323279 L9.09393443,18.2365574 C9.48380328,18.349082 9.88701639,18.1287213 10.0013443,17.743541 C10.1145902,17.3598033 9.89278689,16.9558689 9.50652459,16.842623 L9.18013115,16.7448852 C8.87177049,16.6507541 8.62940984,16.5757377 8.07580328,16.4639344 C7.90629508,16.4285902 7.7317377,16.4552787 7.5802623,16.5371475 C5.81016393,17.4946885 3.8027541,18.5167865 2.42180364,19.1508204 C2.63098397,18.8814102 2.84449216,18.6112801 3.02734462,18.379377 C4.60521311,16.3802623 4.96622951,15.8598361 4.8937377,15.3361639 C4.86704918,15.1421311 4.73577049,14.9181639 4.57708197,14.8016721 C2.59203315,13.3547213 1.4981643,11.4158361 1.4981643,9.34278689 C1.4981643,5.15918033 6.00455738,1.75567213 11.5435082,1.75567213 C17.0824626,1.75567213 21.5888525,5.15918033 21.5888525,9.34242623 C21.5888525,9.74383607 21.9163315,10.0687869 22.3188197,10.0687869 C22.7220328,10.0687869 23.0495082,9.74419672 23.0495082,9.34242623 C23.0495082,4.35888525 17.8874426,0.303672131 11.5427869,0.303672131 C5.19813475,0.303672131 0.0371491639,4.35888525 0.0371491639,9.34242623 C0.0371491639,11.6928233 1.2103621,13.9599016 3.27655918,15.6369508 C2.96206738,16.1094098 2.33019852,16.9089836 1.87721492,17.4831475 C0.24560818,19.5511486 -0.0948507279,20.0456069 0.0201983515,20.5855093 C0.064559,20.7954113 0.232985266,21.0201002 0.422689967,21.1214437 L0.422688525,21.1214423 Z" id="Fill-1" fill="#FFFFFF" mask="url(#mask-2)"></path>
                        <path d="M23.032918,15.0223934 C23.032918,12.3722951 20.3326885,10.2166557 17.0135738,10.2166557 C13.6948197,10.2166557 10.9945902,12.3726557 10.9945902,15.0223934 C10.9945902,17.5967541 13.541541,19.7047876 16.7300984,19.8238033 C17.3424918,20.3308845 19.1482915,21.604 22.2275738,21.9942299 C22.2582295,21.9978359 22.2921311,22 22.3227869,22 C22.5853443,22 22.8410492,21.8539349 22.9708852,21.6278029 C23.2265902,21.186 23.0689836,20.9201956 22.2001639,19.4451148 C21.9938689,19.0945574 21.6912787,18.5795406 21.5037377,18.2300656 C22.4821967,17.3543934 23.032918,16.2100328 23.032918,15.0223934 L23.032918,15.0223934 Z M20.2136721,17.403082 C19.5778361,17.8654426 19.8930492,18.4013767 20.9389508,20.1776062 C20.9605902,20.2143934 20.9815082,20.250098 21.0049508,20.2876062 C18.6870164,19.6979348 17.5426557,18.6019013 17.5314754,18.5914426 C17.3944262,18.4547534 17.2076066,18.3772131 17.0135738,18.3772131 C14.5005246,18.3772131 12.4559636,16.8721967 12.4559636,15.0223934 C12.4559636,13.1729508 14.500521,11.6682951 17.0135738,11.6682951 C19.5269836,11.6682951 21.5722623,13.1729508 21.5722623,15.0223934 C21.5719016,15.9189836 21.088623,16.765082 20.2136721,17.403082 L20.2136721,17.403082 Z" id="Fill-3" fill="#FFFFFF" mask="url(#mask-2)"></path>
                    </g>
                </g>
            </g>
        </g>
    </g>
</svg>